<?xml version="1.0" encoding="UTF-8" standalone="no"?>
<!-- Created with Inkscape (http://www.inkscape.org/) -->

<svg
   width="133.23569mm"
   height="174.42867mm"
   viewBox="0 0 133.23569 174.42867"
   version="1.1"
   id="svg1824"
   inkscape:version="1.2.1 (2ed6d7ae0b, 2022-08-22, custom)"
   sodipodi:docname="lcd-cycle-rw.svg"
   xmlns:inkscape="http://www.inkscape.org/namespaces/inkscape"
   xmlns:sodipodi="http://sodipodi.sourceforge.net/DTD/sodipodi-0.dtd"
   xmlns="http://www.w3.org/2000/svg"
   xmlns:svg="http://www.w3.org/2000/svg">
  <sodipodi:namedview
     id="namedview1826"
     pagecolor="#ffffff"
     bordercolor="#000000"
     borderopacity="0.25"
     inkscape:showpageshadow="2"
     inkscape:pageopacity="0.0"
     inkscape:pagecheckerboard="0"
     inkscape:deskcolor="#d1d1d1"
     inkscape:document-units="mm"
     showgrid="false"
     inkscape:zoom="1"
     inkscape:cx="260"
     inkscape:cy="303.5"
     inkscape:window-width="1860"
     inkscape:window-height="1016"
     inkscape:window-x="0"
     inkscape:window-y="0"
     inkscape:window-maximized="1"
     inkscape:current-layer="layer1" />
  <defs
     id="defs1821" />
  <g
     inkscape:label="Layer 1"
     inkscape:groupmode="layer"
     id="layer1"
     transform="translate(-2.5982569,-47.442447)">
    <rect
       ry="4.0701027"
       y="68.049118"
       x="33.593964"
       height="152.50668"
       width="65.361"
       id="rect861-1"
       style="display:inline;fill:#e3e3e3;fill-opacity:1;stroke:#777777;stroke-width:1.00013;stroke-linejoin:round;stroke-miterlimit:4;stroke-dasharray:none;stroke-opacity:1" />
    <path
       inkscape:connector-curvature="0"
       id="path865-3-6-8"
       d="m 16.090606,78.901504 h 17.77057"
       style="display:inline;fill:none;stroke:#777777;stroke-width:1.00013;stroke-linecap:butt;stroke-linejoin:miter;stroke-miterlimit:4;stroke-dasharray:none;stroke-opacity:1" />
    <rect
       style="display:inline;fill:#fbfbce;fill-opacity:1;stroke:#777777;stroke-width:1.00013;stroke-linecap:round;stroke-linejoin:round;stroke-dasharray:none;stroke-opacity:1"
       id="rect10194-9"
       width="11.295765"
       height="11.472842"
       x="6.1531138"
       y="73.341309"
       ry="1.6579055" />
    <path
       inkscape:connector-curvature="0"
       id="path12143-6"
       d="m 98.749876,121.79483 h 5.962484"
       style="display:inline;fill:none;stroke:#777777;stroke-width:1.00013;stroke-linecap:butt;stroke-linejoin:miter;stroke-miterlimit:4;stroke-dasharray:none;stroke-opacity:1" />
    <path
       inkscape:connector-curvature="0"
       id="path12149-4"
       d="m 28.056496,100.6659 h 5.83719"
       style="display:inline;fill:none;stroke:#777777;stroke-width:1.00013;stroke-linecap:butt;stroke-linejoin:miter;stroke-miterlimit:4;stroke-dasharray:none;stroke-opacity:1" />
    <path
       style="display:inline;fill:none;stroke:#777777;stroke-width:1.00013;stroke-linecap:butt;stroke-linejoin:miter;stroke-dasharray:none;stroke-opacity:1"
       d="m 33.380506,83.668084 6.6582,-5.21201 -6.38872,-5.42201"
       id="path12205-3" />
    <path
       inkscape:connector-curvature="0"
       id="path22406-3"
       d="m 27.681136,122.76494 h 6.19493"
       style="display:inline;fill:none;stroke:#777777;stroke-width:1.00013;stroke-linecap:butt;stroke-linejoin:miter;stroke-miterlimit:4;stroke-dasharray:none;stroke-opacity:1" />
    <text
       xml:space="preserve"
       style="font-size:8.7961px;line-height:1.25;font-family:sans-serif;display:inline;fill:#6e756d;fill-opacity:1;stroke-width:1.00013;stroke-dasharray:none"
       x="1.7993923"
       y="183.79341"
       id="text23482-3"><tspan
         sodipodi:role="line"
         id="tspan23480-8"
         style="fill:#6e756d;fill-opacity:1;stroke-width:1.00013;stroke-dasharray:none"
         x="1.7993923"
         y="183.79341">pin_BF</tspan></text>
    <text
       xml:space="preserve"
       style="font-size:8.39591px;line-height:1.25;font-family:sans-serif;display:inline;fill:#6e756d;fill-opacity:1;stroke-width:1.00013;stroke-dasharray:none"
       x="20.800936"
       y="117.81116"
       id="text19644-6"
       transform="scale(0.99544198,1.0045789)"><tspan
         sodipodi:role="line"
         id="tspan19642-0"
         style="fill:#6e756d;fill-opacity:1;stroke-width:1.00013;stroke-dasharray:none"
         x="20.800936"
         y="117.81116">rw</tspan></text>
    <path
       inkscape:connector-curvature="0"
       id="path3312-4"
       d="m 27.681136,187.54379 h 6.19493"
       style="display:inline;fill:none;stroke:#777777;stroke-width:1.00013;stroke-linecap:butt;stroke-linejoin:miter;stroke-miterlimit:4;stroke-dasharray:none;stroke-opacity:1" />
    <text
       xml:space="preserve"
       style="font-size:8.7961px;line-height:1.25;font-family:sans-serif;display:inline;fill:#6e756d;fill-opacity:1;stroke-width:1.00013;stroke-dasharray:none"
       x="12.203293"
       y="96.896332"
       id="text3316-8"><tspan
         sodipodi:role="line"
         id="tspan3314-8"
         style="fill:#6e756d;fill-opacity:1;stroke-width:1.00013;stroke-dasharray:none"
         x="12.203293"
         y="96.896332">cmd</tspan></text>
    <text
       xml:space="preserve"
       style="font-size:8.7961px;line-height:1.25;font-family:sans-serif;display:inline;fill:#6e756d;fill-opacity:1;stroke-width:1.00013;stroke-dasharray:none"
       x="101.96789"
       y="117.61584"
       id="text2207-8"><tspan
         sodipodi:role="line"
         id="tspan2205-9"
         style="fill:#6e756d;fill-opacity:1;stroke-width:1.00013;stroke-dasharray:none"
         x="101.96789"
         y="117.61584">rw</tspan></text>
    <path
       inkscape:connector-curvature="0"
       id="path2209-7"
       d="m 98.749876,79.274614 h 5.962484"
       style="display:inline;fill:none;stroke:#777777;stroke-width:1.00013;stroke-linecap:butt;stroke-linejoin:miter;stroke-miterlimit:4;stroke-dasharray:none;stroke-opacity:1" />
    <text
       xml:space="preserve"
       style="font-size:8.7961px;line-height:1.25;font-family:sans-serif;display:inline;fill:#6e756d;fill-opacity:1;stroke-width:1.00013;stroke-dasharray:none"
       x="101.96789"
       y="75.330002"
       id="text2213-7"><tspan
         sodipodi:role="line"
         id="tspan2211-6"
         style="fill:#6e756d;fill-opacity:1;stroke-width:1.00013;stroke-dasharray:none"
         x="101.96789"
         y="75.330002">busy</tspan></text>
    <text
       xml:space="preserve"
       style="font-size:8.7961px;line-height:1.25;font-family:sans-serif;display:inline;fill:#6e756d;fill-opacity:1;stroke-width:1.00013;stroke-dasharray:none"
       x="101.90347"
       y="96.625748"
       id="text2217-4"
       inkscape:transform-center-x="-0.26309344"><tspan
         sodipodi:role="line"
         id="tspan2215-3"
         style="fill:#6e756d;fill-opacity:1;stroke-width:1.00013;stroke-dasharray:none"
         x="101.90347"
         y="96.625748">E</tspan></text>
    <path
       inkscape:connector-curvature="0"
       id="path2219-0"
       d="m 98.749876,187.69086 h 5.962484"
       style="display:inline;fill:none;stroke:#777777;stroke-width:1.00013;stroke-linecap:butt;stroke-linejoin:miter;stroke-miterlimit:4;stroke-dasharray:none;stroke-opacity:1" />
    <path
       inkscape:connector-curvature="0"
       id="path2221-3"
       d="m 98.749876,100.41477 h 5.962484"
       style="display:inline;fill:none;stroke:#777777;stroke-width:1.00013;stroke-linecap:butt;stroke-linejoin:miter;stroke-miterlimit:4;stroke-dasharray:none;stroke-opacity:1" />
    <text
       xml:space="preserve"
       style="font-size:8.7961px;line-height:1.25;font-family:sans-serif;display:inline;fill:#6e756d;fill-opacity:1;stroke-width:1.00013;stroke-dasharray:none"
       x="101.96789"
       y="183.94711"
       id="text2225-0"><tspan
         sodipodi:role="line"
         id="tspan2223-9"
         style="fill:#6e756d;fill-opacity:1;stroke-width:1.00013;stroke-dasharray:none"
         x="101.96789"
         y="183.94711">BF</tspan></text>
    <path
       inkscape:connector-curvature="0"
       id="path9420"
       d="m 66.223216,68.108974 v -5.32841"
       style="display:inline;fill:none;stroke:#777777;stroke-width:1.00013;stroke-linecap:butt;stroke-linejoin:miter;stroke-miterlimit:4;stroke-dasharray:none;stroke-opacity:1" />
    <text
       xml:space="preserve"
       style="font-size:8.39591px;line-height:1.25;font-family:sans-serif;display:inline;fill:#6e756d;fill-opacity:1;stroke-width:1.00013;stroke-dasharray:none"
       x="-65.796158"
       y="61.918812"
       id="text10428"
       transform="matrix(0,-0.99544198,1.0045789,0,0,0)"><tspan
         sodipodi:role="line"
         id="tspan10426"
         style="fill:#6e756d;fill-opacity:1;stroke-width:1.00013;stroke-dasharray:none"
         x="-65.796158"
         y="61.918812">Fsys</tspan></text>
    <text
       xml:space="preserve"
       style="font-size:8.7961px;line-height:1.25;font-family:sans-serif;display:inline;fill:#6e756d;fill-opacity:1;stroke-width:1.00013;stroke-dasharray:none"
       x="101.96789"
       y="139.91765"
       id="text20127"><tspan
         sodipodi:role="line"
         id="tspan20125"
         style="fill:#6e756d;fill-opacity:1;stroke-width:1.00013;stroke-dasharray:none"
         x="101.96789"
         y="139.91765">rs</tspan></text>
    <path
       inkscape:connector-curvature="0"
       id="path20129"
       d="m 98.749876,143.80263 h 5.962484"
       style="display:inline;fill:none;stroke:#777777;stroke-width:1.00013;stroke-linecap:butt;stroke-linejoin:miter;stroke-miterlimit:4;stroke-dasharray:none;stroke-opacity:1" />
    <text
       xml:space="preserve"
       style="font-size:8.7961px;line-height:1.25;font-family:sans-serif;display:inline;fill:#6e756d;fill-opacity:1;stroke-width:1.00013;stroke-dasharray:none"
       x="101.61417"
       y="162.74405"
       id="text21039"><tspan
         sodipodi:role="line"
         id="tspan21037"
         style="fill:#6e756d;fill-opacity:1;stroke-width:1.00013;stroke-dasharray:none"
         x="101.61417"
         y="162.74405">oen</tspan></text>
    <path
       inkscape:connector-curvature="0"
       id="path21041"
       d="m 98.749876,165.70559 h 5.962484"
       style="display:inline;fill:none;stroke:#777777;stroke-width:2.64583;stroke-linecap:butt;stroke-linejoin:miter;stroke-miterlimit:4;stroke-dasharray:none;stroke-opacity:1" />
    <path
       inkscape:connector-curvature="0"
       id="path21949"
       d="m 28.163386,165.70559 h 5.96248"
       style="display:inline;fill:none;stroke:#777777;stroke-width:2.64583;stroke-linecap:butt;stroke-linejoin:miter;stroke-miterlimit:4;stroke-dasharray:none;stroke-opacity:1" />
    <text
       xml:space="preserve"
       style="font-size:8.7961px;line-height:1.25;font-family:sans-serif;display:inline;fill:#6e756d;fill-opacity:1;stroke-width:1.00013;stroke-dasharray:none"
       x="20.956139"
       y="161.42258"
       id="text22859"><tspan
         sodipodi:role="line"
         id="tspan22857"
         style="fill:#6e756d;fill-opacity:1;stroke-width:1.00013;stroke-dasharray:none"
         x="20.956139"
         y="161.42258">nc</tspan></text>
    <path
       inkscape:connector-curvature="0"
       id="path23767"
       d="m 27.681136,143.94491 h 6.19493"
       style="display:inline;fill:none;stroke:#777777;stroke-width:1.00013;stroke-linecap:butt;stroke-linejoin:miter;stroke-miterlimit:4;stroke-dasharray:none;stroke-opacity:1" />
    <text
       xml:space="preserve"
       style="font-size:8.39591px;line-height:1.25;font-family:sans-serif;display:inline;fill:#6e756d;fill-opacity:1;stroke-width:1.00013;stroke-dasharray:none"
       x="23.392107"
       y="139.2881"
       id="text23771"
       transform="scale(0.99544198,1.0045789)"><tspan
         sodipodi:role="line"
         id="tspan23769"
         style="fill:#6e756d;fill-opacity:1;stroke-width:1.00013;stroke-dasharray:none"
         x="23.392107"
         y="139.2881">rs</tspan></text>
    <path
       inkscape:connector-curvature="0"
       id="path2025"
       d="m 27.681136,209.39569 h 6.19493"
       style="display:inline;fill:none;stroke:#777777;stroke-width:1.00013;stroke-linecap:butt;stroke-linejoin:miter;stroke-miterlimit:4;stroke-dasharray:none;stroke-opacity:1" />
    <text
       xml:space="preserve"
       style="font-size:8.7961px;line-height:1.25;font-family:sans-serif;display:inline;fill:#6e756d;fill-opacity:1;stroke-width:1.00013;stroke-dasharray:none"
       x="11.649956"
       y="205.21896"
       id="text2078"><tspan
         sodipodi:role="line"
         id="tspan2076"
         style="fill:#6e756d;fill-opacity:1;stroke-width:1.00013;stroke-dasharray:none"
         x="11.649956"
         y="205.21896">start</tspan></text>
    <g
       inkscape:label="Capa 1"
       id="layer1-5"
       transform="matrix(0.45540185,0,0,0.45540185,18.088384,94.563733)"
       style="display:inline">
      <path
         d="m 162.95666,104.08831 c 0,3.01405 -1.95975,2.63472 -3.28208,2.63472 H 50.325425 c -1.32233,0 -2.400409,-1.09426 -2.400409,-4.10831 V 42.692573 c 0,-3.021191 1.078079,-2.571451 2.400409,-2.571451 H 159.67458 c 1.32233,0 3.28208,-0.442597 3.28208,2.571451 z"
         fill="#87ad34"
         stroke="#303030"
         stroke-width="0.875998"
         id="path1050"
         sodipodi:nodetypes="sssssssss" />
      <path
         d="m 56.313814,48.489121 h 6.081035 v 6.219926 h -6.081035 z"
         opacity="0.99"
         fill="#1a1a1a"
         fill-opacity="0.866"
         stroke="#1a1a1a"
         stroke-width="0.072"
         id="path1052" />
      <path
         d="m 62.394849,48.489121 h 6.081036 v 6.219926 h -6.081036 z m 6.081036,0 h 6.072613 v 6.219926 h -6.072613 z m 6.081036,0 h 6.06419 v 6.219926 h -6.06419 z m 6.06419,0 h 6.081036 v 6.219926 h -6.072613 z"
         opacity="0.99"
         fill="#1a1a1a"
         fill-opacity="0.102"
         stroke="#1a1a1a"
         stroke-width="0.072"
         stroke-opacity="0.102"
         id="path1054" />
      <path
         d="m 56.313814,54.717674 h 6.081035 v 6.211298 h -6.081035 z"
         opacity="0.99"
         fill="#1a1a1a"
         fill-opacity="0.866"
         stroke="#1a1a1a"
         stroke-width="0.072"
         id="path1056" />
      <path
         d="m 62.394849,54.717674 h 6.081036 v 6.211298 h -6.081036 z m 6.081036,0 h 6.072613 v 6.211298 h -6.072613 z m 6.081036,0 h 6.06419 v 6.211298 h -6.06419 z m 6.06419,0 h 6.081036 v 6.211298 h -6.072613 z"
         opacity="0.99"
         fill="#1a1a1a"
         fill-opacity="0.102"
         stroke="#1a1a1a"
         stroke-width="0.072"
         stroke-opacity="0.102"
         id="path1058" />
      <path
         d="m 56.313814,60.928972 h 6.081035 v 6.228552 h -6.081035 z"
         opacity="0.99"
         fill="#1a1a1a"
         fill-opacity="0.866"
         stroke="#1a1a1a"
         stroke-width="0.072"
         id="path1060" />
      <path
         d="m 62.394849,60.928972 h 6.081036 v 6.228552 h -6.081036 z m 6.081036,0 h 6.072613 v 6.228552 h -6.072613 z m 6.081036,0 h 6.06419 v 6.228552 h -6.06419 z m 6.06419,0 h 6.081036 v 6.228552 h -6.072613 z"
         opacity="0.99"
         fill="#1a1a1a"
         fill-opacity="0.102"
         stroke="#1a1a1a"
         stroke-width="0.072"
         stroke-opacity="0.102"
         id="path1062" />
      <path
         d="m 56.313814,67.157524 h 6.081035 v 6.228553 h -6.081035 z"
         opacity="0.99"
         fill="#1a1a1a"
         fill-opacity="0.866"
         stroke="#1a1a1a"
         stroke-width="0.072"
         id="path1064" />
      <path
         d="m 62.394849,67.157524 h 6.081036 v 6.228553 h -6.081036 z m 6.081036,0 h 6.072613 v 6.228553 h -6.072613 z m 6.081036,0 h 6.06419 v 6.228553 h -6.06419 z m 6.06419,0 h 6.081036 v 6.228553 h -6.072613 z"
         opacity="0.99"
         fill="#1a1a1a"
         fill-opacity="0.102"
         stroke="#1a1a1a"
         stroke-width="0.072"
         stroke-opacity="0.102"
         id="path1066" />
      <path
         d="m 56.313814,73.386077 h 6.081035 v 6.228552 h -6.081035 z"
         opacity="0.99"
         fill="#1a1a1a"
         fill-opacity="0.866"
         stroke="#1a1a1a"
         stroke-width="0.072"
         id="path1068" />
      <path
         d="m 62.394849,73.386077 h 6.081036 v 6.228552 h -6.081036 z m 6.081036,0 h 6.072613 v 6.228552 h -6.072613 z m 6.081036,0 h 6.06419 v 6.228552 h -6.06419 z m 6.06419,0 h 6.081036 v 6.228552 h -6.072613 z"
         opacity="0.99"
         fill="#1a1a1a"
         fill-opacity="0.102"
         stroke="#1a1a1a"
         stroke-width="0.072"
         stroke-opacity="0.102"
         id="path1070" />
      <path
         d="m 56.313814,79.614629 h 6.081035 v 6.219925 h -6.081035 z"
         opacity="0.99"
         fill="#1a1a1a"
         fill-opacity="0.866"
         stroke="#1a1a1a"
         stroke-width="0.072"
         id="path1072" />
      <path
         d="m 62.394849,79.614629 h 6.081036 v 6.219925 h -6.081036 z m 6.081036,0 h 6.072613 v 6.219925 h -6.072613 z m 6.081036,0 h 6.06419 v 6.219925 h -6.06419 z m 6.06419,0 h 6.081036 v 6.219925 h -6.072613 z"
         opacity="0.99"
         fill="#1a1a1a"
         fill-opacity="0.102"
         stroke="#1a1a1a"
         stroke-width="0.072"
         stroke-opacity="0.102"
         id="path1074" />
      <path
         d="m 56.313814,85.834554 h 6.081035 v 6.228552 h -6.081035 z"
         opacity="0.99"
         fill="#1a1a1a"
         fill-opacity="0.866"
         stroke="#1a1a1a"
         stroke-width="0.072"
         id="path1076" />
      <path
         d="m 62.394849,85.834554 h 6.081036 v 6.228552 h -6.081036 z m 6.081036,0 h 6.072613 v 6.228552 h -6.072613 z m 6.081036,0 h 6.06419 v 6.228552 h -6.06419 z m 6.06419,0 h 6.081036 v 6.228552 h -6.072613 z"
         opacity="0.99"
         fill="#1a1a1a"
         fill-opacity="0.102"
         stroke="#1a1a1a"
         stroke-width="0.072"
         stroke-opacity="0.102"
         id="path1078" />
      <path
         d="m 56.313814,92.063106 h 6.081035 v 6.219926 h -6.081035 z m 6.081035,0 h 6.081036 v 6.219926 h -6.081036 z m 6.081036,0 h 6.072613 v 6.219926 h -6.072613 z m 6.081036,0 h 6.06419 v 6.219926 h -6.06419 z m 6.06419,0 h 6.081036 v 6.219926 h -6.072613 z"
         opacity="0.99"
         fill="#1a1a1a"
         fill-opacity="0.866"
         stroke="#1a1a1a"
         stroke-width="0.072"
         id="path1080" />
      <path
         d="M 89.742665,48.489121 H 95.8237 v 6.219926 h -6.081035 z"
         opacity="0.99"
         fill="#1a1a1a"
         fill-opacity="0.102"
         stroke="#1a1a1a"
         stroke-width="0.072"
         stroke-opacity="0.102"
         id="path1082" />
      <path
         d="m 95.8237,48.489121 h 6.07261 v 6.219926 H 95.8237 Z m 6.07261,0 h 6.08104 v 6.219926 h -6.08104 z m 6.08104,0 h 6.08104 v 6.219926 h -6.08104 z"
         opacity="0.99"
         fill="#1a1a1a"
         fill-opacity="0.866"
         stroke="#1a1a1a"
         stroke-width="0.072"
         id="path1084" />
      <path
         d="m 114.05839,48.489121 h 6.07261 v 6.219926 h -6.07261 z"
         opacity="0.99"
         fill="#1a1a1a"
         fill-opacity="0.102"
         stroke="#1a1a1a"
         stroke-width="0.072"
         stroke-opacity="0.102"
         id="path1086" />
      <path
         d="M 89.742665,54.717674 H 95.8237 v 6.211298 h -6.081035 z"
         opacity="0.99"
         fill="#1a1a1a"
         fill-opacity="0.866"
         stroke="#1a1a1a"
         stroke-width="0.072"
         id="path1088" />
      <path
         d="m 95.8237,54.717674 h 6.07261 v 6.211298 H 95.8237 Z m 6.07261,0 h 6.08104 v 6.211298 h -6.08104 z m 6.08104,0 h 6.08104 v 6.211298 h -6.08104 z"
         opacity="0.99"
         fill="#1a1a1a"
         fill-opacity="0.102"
         stroke="#1a1a1a"
         stroke-width="0.072"
         stroke-opacity="0.102"
         id="path1090" />
      <path
         d="m 114.05839,54.717674 h 6.07261 v 6.211298 h -6.07261 z M 89.742665,60.928972 H 95.8237 v 6.228552 h -6.081035 z"
         opacity="0.99"
         fill="#1a1a1a"
         fill-opacity="0.866"
         stroke="#1a1a1a"
         stroke-width="0.072"
         id="path1092" />
      <path
         d="m 95.8237,60.928972 h 6.07261 v 6.228552 H 95.8237 Z m 6.07261,0 h 6.08104 v 6.228552 h -6.08104 z m 6.08104,0 h 6.08104 v 6.228552 h -6.08104 z m 6.08104,0 h 6.07261 v 6.228552 h -6.07261 z"
         opacity="0.99"
         fill="#1a1a1a"
         fill-opacity="0.102"
         stroke="#1a1a1a"
         stroke-width="0.072"
         stroke-opacity="0.102"
         id="path1094" />
      <path
         d="M 89.742665,67.157524 H 95.8237 v 6.228553 h -6.081035 z"
         opacity="0.99"
         fill="#1a1a1a"
         fill-opacity="0.866"
         stroke="#1a1a1a"
         stroke-width="0.072"
         id="path1096" />
      <path
         d="m 95.8237,67.157524 h 6.07261 v 6.228553 H 95.8237 Z m 6.07261,0 h 6.08104 v 6.228553 h -6.08104 z m 6.08104,0 h 6.08104 v 6.228553 h -6.08104 z m 6.08104,0 h 6.07261 v 6.228553 h -6.07261 z"
         opacity="0.99"
         fill="#1a1a1a"
         fill-opacity="0.102"
         stroke="#1a1a1a"
         stroke-width="0.072"
         stroke-opacity="0.102"
         id="path1098" />
      <path
         d="M 89.742665,73.386077 H 95.8237 v 6.228552 h -6.081035 z"
         opacity="0.99"
         fill="#1a1a1a"
         fill-opacity="0.866"
         stroke="#1a1a1a"
         stroke-width="0.072"
         id="path1100" />
      <path
         d="m 95.8237,73.386077 h 6.07261 v 6.228552 H 95.8237 Z m 6.07261,0 h 6.08104 v 6.228552 h -6.08104 z m 6.08104,0 h 6.08104 v 6.228552 h -6.08104 z m 6.08104,0 h 6.07261 v 6.228552 h -6.07261 z"
         opacity="0.99"
         fill="#1a1a1a"
         fill-opacity="0.102"
         stroke="#1a1a1a"
         stroke-width="0.072"
         stroke-opacity="0.102"
         id="path1102" />
      <path
         d="M 89.742665,79.614629 H 95.8237 v 6.219925 h -6.081035 z"
         opacity="0.99"
         fill="#1a1a1a"
         fill-opacity="0.866"
         stroke="#1a1a1a"
         stroke-width="0.072"
         id="path1104" />
      <path
         d="m 95.8237,79.614629 h 6.07261 v 6.219925 H 95.8237 Z m 6.07261,0 h 6.08104 v 6.219925 h -6.08104 z m 6.08104,0 h 6.08104 v 6.219925 h -6.08104 z m 6.08104,0 h 6.07261 v 6.219925 h -6.07261 z"
         opacity="0.99"
         fill="#1a1a1a"
         fill-opacity="0.102"
         stroke="#1a1a1a"
         stroke-width="0.072"
         stroke-opacity="0.102"
         id="path1106" />
      <path
         d="M 89.742665,85.834554 H 95.8237 v 6.228552 h -6.081035 z"
         opacity="0.99"
         fill="#1a1a1a"
         fill-opacity="0.866"
         stroke="#1a1a1a"
         stroke-width="0.072"
         id="path1108" />
      <path
         d="m 95.8237,85.834554 h 6.07261 v 6.228552 H 95.8237 Z m 6.07261,0 h 6.08104 v 6.228552 h -6.08104 z m 6.08104,0 h 6.08104 v 6.228552 h -6.08104 z"
         opacity="0.99"
         fill="#1a1a1a"
         fill-opacity="0.102"
         stroke="#1a1a1a"
         stroke-width="0.072"
         stroke-opacity="0.102"
         id="path1110" />
      <path
         d="m 114.05839,85.834554 h 6.07261 v 6.228552 h -6.07261 z"
         opacity="0.99"
         fill="#1a1a1a"
         fill-opacity="0.866"
         stroke="#1a1a1a"
         stroke-width="0.072"
         id="path1112" />
      <path
         d="M 89.742665,92.063106 H 95.8237 v 6.219926 h -6.081035 z"
         opacity="0.99"
         fill="#1a1a1a"
         fill-opacity="0.102"
         stroke="#1a1a1a"
         stroke-width="0.072"
         stroke-opacity="0.102"
         id="path1114" />
      <path
         d="m 95.8237,92.063106 h 6.07261 v 6.219926 H 95.8237 Z m 6.07261,0 h 6.08104 v 6.219926 h -6.08104 z m 6.08104,0 h 6.08104 v 6.219926 h -6.08104 z"
         opacity="0.99"
         fill="#1a1a1a"
         fill-opacity="0.866"
         stroke="#1a1a1a"
         stroke-width="0.072"
         id="path1116" />
      <path
         d="m 114.05839,92.063106 h 6.07261 v 6.219926 h -6.07261 z"
         opacity="0.99"
         fill="#1a1a1a"
         fill-opacity="0.102"
         stroke="#1a1a1a"
         stroke-width="0.072"
         stroke-opacity="0.102"
         id="path1118" />
      <path
         d="m 123.17152,48.489121 h 6.08103 v 6.219926 h -6.08103 z m 6.08103,0 h 6.07261 v 6.219926 h -6.07261 z m 6.07261,0 h 6.08104 v 6.219926 h -6.08104 z"
         opacity="0.99"
         fill="#1a1a1a"
         fill-opacity="0.866"
         stroke="#1a1a1a"
         stroke-width="0.072"
         id="path1120" />
      <path
         d="m 141.4062,48.489121 h 6.07261 v 6.219926 h -6.07261 z"
         opacity="0.99"
         fill="#1a1a1a"
         fill-opacity="0.102"
         stroke="#1a1a1a"
         stroke-width="0.072"
         stroke-opacity="0.102"
         id="path1122" />
      <path
         d="m 147.47881,48.489121 h 6.08104 v 6.219926 h -6.08104 z"
         opacity="0.99"
         fill="#1a1a1a"
         fill-opacity="0.102"
         stroke="#1a1a1a"
         stroke-width="0.072"
         stroke-opacity="0.102"
         id="path1124" />
      <path
         d="m 123.17152,54.717674 h 6.08103 v 6.211298 h -6.08103 z"
         opacity="0.99"
         fill="#1a1a1a"
         fill-opacity="0.866"
         stroke="#1a1a1a"
         stroke-width="0.072"
         id="path1126" />
      <path
         d="m 129.25255,54.717674 h 6.07261 v 6.211298 h -6.07261 z m 6.07261,0 h 6.08104 v 6.211298 h -6.08104 z"
         opacity="0.99"
         fill="#1a1a1a"
         fill-opacity="0.102"
         stroke="#1a1a1a"
         stroke-width="0.072"
         stroke-opacity="0.102"
         id="path1128" />
      <path
         d="m 141.4062,54.717674 h 6.07261 v 6.211298 h -6.07261 z"
         opacity="0.99"
         fill="#1a1a1a"
         fill-opacity="0.866"
         stroke="#1a1a1a"
         stroke-width="0.072"
         id="path1130" />
      <path
         d="m 147.47881,54.717674 h 6.08104 v 6.211298 h -6.08104 z"
         opacity="0.99"
         fill="#1a1a1a"
         fill-opacity="0.102"
         stroke="#1a1a1a"
         stroke-width="0.072"
         stroke-opacity="0.102"
         id="path1132" />
      <path
         d="m 123.17152,60.928972 h 6.08103 v 6.228552 h -6.08103 z"
         opacity="0.99"
         fill="#1a1a1a"
         fill-opacity="0.866"
         stroke="#1a1a1a"
         stroke-width="0.072"
         id="path1134" />
      <path
         d="m 129.25255,60.928972 h 6.07261 v 6.228552 h -6.07261 z m 6.07261,0 h 6.08104 v 6.228552 h -6.08104 z m 6.08104,0 h 6.07261 v 6.228552 h -6.07261 z"
         opacity="0.99"
         fill="#1a1a1a"
         fill-opacity="0.102"
         stroke="#1a1a1a"
         stroke-width="0.072"
         stroke-opacity="0.102"
         id="path1136" />
      <path
         d="m 147.47881,60.928972 h 6.08104 v 6.228552 h -6.08104 z m -24.30729,6.228552 h 6.08103 v 6.228553 h -6.08103 z"
         opacity="0.99"
         fill="#1a1a1a"
         fill-opacity="0.866"
         stroke="#1a1a1a"
         stroke-width="0.072"
         id="path1138" />
      <path
         d="m 129.25255,67.157524 h 6.07261 v 6.228553 h -6.07261 z m 6.07261,0 h 6.08104 v 6.228553 h -6.08104 z m 6.08104,0 h 6.07261 v 6.228553 h -6.07261 z"
         opacity="0.99"
         fill="#1a1a1a"
         fill-opacity="0.102"
         stroke="#1a1a1a"
         stroke-width="0.072"
         stroke-opacity="0.102"
         id="path1140" />
      <path
         d="m 147.47881,67.157524 h 6.08104 v 6.228553 h -6.08104 z m -24.30729,6.228553 h 6.08103 v 6.228552 h -6.08103 z"
         opacity="0.99"
         fill="#1a1a1a"
         fill-opacity="0.866"
         stroke="#1a1a1a"
         stroke-width="0.072"
         id="path1142" />
      <path
         d="m 129.25255,73.386077 h 6.07261 v 6.228552 h -6.07261 z m 6.07261,0 h 6.08104 v 6.228552 h -6.08104 z m 6.08104,0 h 6.07261 v 6.228552 h -6.07261 z"
         opacity="0.99"
         fill="#1a1a1a"
         fill-opacity="0.102"
         stroke="#1a1a1a"
         stroke-width="0.072"
         stroke-opacity="0.102"
         id="path1144" />
      <path
         d="m 147.47881,73.386077 h 6.08104 v 6.228552 h -6.08104 z m -24.30729,6.228552 h 6.08103 v 6.219925 h -6.08103 z"
         opacity="0.99"
         fill="#1a1a1a"
         fill-opacity="0.866"
         stroke="#1a1a1a"
         stroke-width="0.072"
         id="path1146" />
      <path
         d="m 129.25255,79.614629 h 6.07261 v 6.219925 h -6.07261 z m 6.07261,0 h 6.08104 v 6.219925 h -6.08104 z m 6.08104,0 h 6.07261 v 6.219925 h -6.07261 z"
         opacity="0.99"
         fill="#1a1a1a"
         fill-opacity="0.102"
         stroke="#1a1a1a"
         stroke-width="0.072"
         stroke-opacity="0.102"
         id="path1148" />
      <path
         d="m 147.47881,79.614629 h 6.08104 v 6.219925 h -6.08104 z m -24.30729,6.219925 h 6.08103 v 6.228552 h -6.08103 z"
         opacity="0.99"
         fill="#1a1a1a"
         fill-opacity="0.866"
         stroke="#1a1a1a"
         stroke-width="0.072"
         id="path1150" />
      <path
         d="m 129.25255,85.834554 h 6.07261 v 6.228552 h -6.07261 z m 6.07261,0 h 6.08104 v 6.228552 h -6.08104 z"
         opacity="0.99"
         fill="#1a1a1a"
         fill-opacity="0.102"
         stroke="#1a1a1a"
         stroke-width="0.072"
         stroke-opacity="0.102"
         id="path1152" />
      <path
         d="m 141.4062,85.834554 h 6.07261 v 6.228552 h -6.07261 z"
         opacity="0.99"
         fill="#1a1a1a"
         fill-opacity="0.866"
         stroke="#1a1a1a"
         stroke-width="0.072"
         id="path1154" />
      <path
         d="m 147.47881,85.834554 h 6.08104 v 6.228552 h -6.08104 z"
         opacity="0.99"
         fill="#1a1a1a"
         fill-opacity="0.102"
         stroke="#1a1a1a"
         stroke-width="0.072"
         stroke-opacity="0.102"
         id="path1156" />
      <path
         d="m 123.17152,92.063106 h 6.08103 v 6.219926 h -6.08103 z m 6.08103,0 h 6.07261 v 6.219926 h -6.07261 z m 6.07261,0 h 6.08104 v 6.219926 h -6.08104 z"
         opacity="0.99"
         fill="#1a1a1a"
         fill-opacity="0.866"
         stroke="#1a1a1a"
         stroke-width="0.072"
         id="path1158" />
      <path
         d="m 141.4062,92.063106 h 6.07261 v 6.219926 h -6.07261 z"
         opacity="0.99"
         fill="#1a1a1a"
         fill-opacity="0.102"
         stroke="#1a1a1a"
         stroke-width="0.072"
         stroke-opacity="0.102"
         id="path1160" />
      <path
         d="m 147.47881,92.063106 h 6.08104 v 6.219926 h -6.08104 z"
         opacity="0.99"
         fill="#1a1a1a"
         fill-opacity="0.102"
         stroke="#1a1a1a"
         stroke-width="0.072"
         stroke-opacity="0.102"
         id="path1162" />
      <g
         id="g3012"
         style="stroke-width:1.61902"
         transform="matrix(0.16342148,0,0,0.16342148,63.929585,112.02076)">
</g>
      <g
         id="g3014"
         style="stroke-width:1.61902"
         transform="matrix(0.16342148,0,0,0.16342148,63.929585,112.02076)">
</g>
      <g
         id="g3016"
         style="stroke-width:1.61902"
         transform="matrix(0.16342148,0,0,0.16342148,63.929585,112.02076)">
</g>
      <g
         id="g3018"
         style="stroke-width:1.61902"
         transform="matrix(0.16342148,0,0,0.16342148,63.929585,112.02076)">
</g>
      <g
         id="g3020"
         style="stroke-width:1.61902"
         transform="matrix(0.16342148,0,0,0.16342148,63.929585,112.02076)">
</g>
      <g
         id="g3022"
         style="stroke-width:1.61902"
         transform="matrix(0.16342148,0,0,0.16342148,63.929585,112.02076)">
</g>
      <g
         id="g3024"
         style="stroke-width:1.61902"
         transform="matrix(0.16342148,0,0,0.16342148,63.929585,112.02076)">
</g>
      <g
         id="g3026"
         style="stroke-width:1.61902"
         transform="matrix(0.16342148,0,0,0.16342148,63.929585,112.02076)">
</g>
      <g
         id="g3028"
         style="stroke-width:1.61902"
         transform="matrix(0.16342148,0,0,0.16342148,63.929585,112.02076)">
</g>
      <g
         id="g3030"
         style="stroke-width:1.61902"
         transform="matrix(0.16342148,0,0,0.16342148,63.929585,112.02076)">
</g>
      <g
         id="g3032"
         style="stroke-width:1.61902"
         transform="matrix(0.16342148,0,0,0.16342148,63.929585,112.02076)">
</g>
      <g
         id="g3034"
         style="stroke-width:1.61902"
         transform="matrix(0.16342148,0,0,0.16342148,63.929585,112.02076)">
</g>
      <g
         id="g3036"
         style="stroke-width:1.61902"
         transform="matrix(0.16342148,0,0,0.16342148,63.929585,112.02076)">
</g>
      <g
         id="g3038"
         style="stroke-width:1.61902"
         transform="matrix(0.16342148,0,0,0.16342148,63.929585,112.02076)">
</g>
      <g
         id="g3040"
         style="stroke-width:1.61902"
         transform="matrix(0.16342148,0,0,0.16342148,63.929585,112.02076)">
</g>
      <text
         xml:space="preserve"
         style="font-size:26.4303px;line-height:1.25;font-family:sans-serif;fill:#0000ff;stroke-width:0.688947"
         x="46.95435"
         y="163.93237"
         id="text6647"
         transform="scale(0.95908613,1.0426592)"><tspan
           sodipodi:role="line"
           id="tspan6645"
           style="font-style:normal;font-variant:normal;font-weight:bold;font-stretch:normal;font-family:sans-serif;-inkscape-font-specification:'sans-serif Bold';fill:#0000ff;stroke-width:0.688947"
           x="46.95435"
           y="163.93237">Cycle rw</tspan></text>
      <path
         style="fill:none;stroke:#008000;stroke-width:3.96875;stroke-linecap:round;stroke-linejoin:miter;stroke-dasharray:none;stroke-opacity:1"
         d="m 162.95666,141.01842 -29.21587,-0.20708 -5.61751,-20.41884 H 79.222673 l -5.47121,20.41884 -25.826447,0.20708"
         id="path6921"
         sodipodi:nodetypes="cccccc" />
    </g>
    <path
       inkscape:connector-curvature="0"
       id="path4541"
       d="m 98.749876,209.39569 h 5.962484"
       style="display:inline;fill:none;stroke:#777777;stroke-width:1.00013;stroke-linecap:butt;stroke-linejoin:miter;stroke-miterlimit:4;stroke-dasharray:none;stroke-opacity:1" />
    <text
       xml:space="preserve"
       style="font-size:8.7961px;line-height:1.25;font-family:sans-serif;display:inline;fill:#6e756d;fill-opacity:1;stroke-width:1.00013;stroke-dasharray:none"
       x="101.96789"
       y="205.02562"
       id="text4545"><tspan
         sodipodi:role="line"
         id="tspan4543"
         style="fill:#6e756d;fill-opacity:1;stroke-width:1.00013;stroke-dasharray:none"
         x="101.96789"
         y="205.02562">done</tspan></text>
  </g>
</svg>
