<?xml version="1.0" encoding="UTF-8" standalone="no"?>
<!-- Created with Inkscape (http://www.inkscape.org/) -->

<svg
   width="196.13751mm"
   height="143.25455mm"
   viewBox="0 0 196.13752 143.25455"
   version="1.1"
   id="svg1824"
   inkscape:version="1.2.1 (0f2f062aeb, 2022-09-21, custom)"
   sodipodi:docname="lcd-config.svg"
   xml:space="preserve"
   xmlns:inkscape="http://www.inkscape.org/namespaces/inkscape"
   xmlns:sodipodi="http://sodipodi.sourceforge.net/DTD/sodipodi-0.dtd"
   xmlns="http://www.w3.org/2000/svg"
   xmlns:svg="http://www.w3.org/2000/svg"><sodipodi:namedview
     id="namedview1826"
     pagecolor="#ffffff"
     bordercolor="#000000"
     borderopacity="0.25"
     inkscape:showpageshadow="2"
     inkscape:pageopacity="0.0"
     inkscape:pagecheckerboard="0"
     inkscape:deskcolor="#d1d1d1"
     inkscape:document-units="mm"
     showgrid="false"
     inkscape:zoom="0.83808764"
     inkscape:cx="280.40027"
     inkscape:cy="289.34922"
     inkscape:window-width="1860"
     inkscape:window-height="1016"
     inkscape:window-x="60"
     inkscape:window-y="1107"
     inkscape:window-maximized="1"
     inkscape:current-layer="svg1824"
     showguides="true" /><defs
     id="defs1821" /><rect
     ry="2.8796477"
     y="34.854122"
     x="27.940922"
     height="107.90035"
     width="128.56229"
     id="rect861-1-3"
     style="display:inline;opacity:1;fill:#e3e3e3;fill-opacity:1;stroke:#777777;stroke-width:1.00013;stroke-linejoin:round;stroke-miterlimit:4;stroke-dasharray:none;stroke-opacity:1" /><path
     inkscape:connector-curvature="0"
     id="path865-3-6-8-6"
     d="m 10.437556,50.593819 h 17.77057"
     style="display:inline;opacity:1;fill:none;stroke:#777777;stroke-width:1.00013;stroke-linecap:butt;stroke-linejoin:miter;stroke-miterlimit:4;stroke-dasharray:none;stroke-opacity:1" /><rect
     style="opacity:1;fill:#fbfbce;fill-opacity:1;stroke:#777777;stroke-width:1.00013;stroke-linecap:round;stroke-linejoin:round;stroke-dasharray:none;stroke-opacity:1"
     id="rect10194-9-7"
     width="11.295765"
     height="11.472842"
     x="0.50006503"
     y="45.033623"
     ry="1.6579055" /><path
     inkscape:connector-curvature="0"
     id="path12143-6-5"
     d="m 156.43645,88.462149 h 5.96249"
     style="display:inline;opacity:1;fill:none;stroke:#777777;stroke-width:1.00013;stroke-linecap:butt;stroke-linejoin:miter;stroke-miterlimit:4;stroke-dasharray:none;stroke-opacity:1" /><path
     inkscape:connector-curvature="0"
     id="path12149-4-3"
     d="m 22.403446,88.683748 h 5.83719"
     style="display:inline;opacity:1;fill:none;stroke:#777777;stroke-width:1.00013;stroke-linecap:butt;stroke-linejoin:miter;stroke-miterlimit:4;stroke-dasharray:none;stroke-opacity:1" /><path
     style="opacity:1;fill:none;stroke:#777777;stroke-width:1.00013;stroke-linecap:butt;stroke-linejoin:miter;stroke-dasharray:none;stroke-opacity:1"
     d="m 27.727456,55.360399 6.6582,-5.21201 -6.38872,-5.42201"
     id="path12205-3-5" /><text
     xml:space="preserve"
     style="font-size:8.7961px;line-height:1.25;font-family:sans-serif;opacity:1;fill:#6e756d;fill-opacity:1;stroke-width:1.00013;stroke-dasharray:none"
     x="5.7545047"
     y="122.55456"
     id="text23482-3-2"><tspan
       sodipodi:role="line"
       id="tspan23480-8-9"
       style="fill:#6e756d;fill-opacity:1;stroke-width:1.00013;stroke-dasharray:none"
       x="5.7545047"
       y="122.55456">next</tspan></text><path
     inkscape:connector-curvature="0"
     id="path3312-4-7"
     d="m 22.028086,126.62722 h 6.19493"
     style="display:inline;opacity:1;fill:none;stroke:#777777;stroke-width:1.00013;stroke-linecap:butt;stroke-linejoin:miter;stroke-miterlimit:4;stroke-dasharray:none;stroke-opacity:1" /><path
     inkscape:connector-curvature="0"
     id="path2209-7-0"
     d="m 156.43645,45.941929 h 5.96249"
     style="display:inline;opacity:1;fill:none;stroke:#777777;stroke-width:1.00013;stroke-linecap:butt;stroke-linejoin:miter;stroke-miterlimit:4;stroke-dasharray:none;stroke-opacity:1" /><text
     xml:space="preserve"
     style="font-size:8.7961px;line-height:1.25;font-family:sans-serif;opacity:1;fill:#6e756d;fill-opacity:1;stroke-width:1.00013;stroke-dasharray:none"
     x="158.55687"
     y="41.612202"
     id="text2213-7-6"><tspan
       sodipodi:role="line"
       id="tspan2211-6-2"
       style="fill:#6e756d;fill-opacity:1;stroke-width:1.00013;stroke-dasharray:none"
       x="158.55687"
       y="41.612202">busy</tspan></text><text
     xml:space="preserve"
     style="font-size:8.7961px;line-height:1.25;font-family:sans-serif;opacity:1;fill:#6e756d;fill-opacity:1;stroke-width:1.00013;stroke-dasharray:none"
     x="158.81396"
     y="63.37254"
     id="text2217-4-6"><tspan
       sodipodi:role="line"
       id="tspan2215-3-1"
       style="fill:#6e756d;fill-opacity:1;stroke-width:1.00013;stroke-dasharray:none"
       x="158.81396"
       y="63.37254">cmd</tspan></text><path
     inkscape:connector-curvature="0"
     id="path2219-0-8"
     d="m 156.43645,132.46752 h 5.96249"
     style="display:inline;opacity:1;fill:none;stroke:#777777;stroke-width:1.00013;stroke-linecap:butt;stroke-linejoin:miter;stroke-miterlimit:4;stroke-dasharray:none;stroke-opacity:1" /><text
     xml:space="preserve"
     style="font-size:8.7961px;line-height:1.25;font-family:sans-serif;opacity:1;fill:#6e756d;fill-opacity:1;stroke-width:1.00013;stroke-dasharray:none"
     x="159.65446"
     y="128.72375"
     id="text2225-0-9"><tspan
       sodipodi:role="line"
       id="tspan2223-9-2"
       style="fill:#6e756d;fill-opacity:1;stroke-width:1.00013;stroke-dasharray:none"
       x="159.65446"
       y="128.72375">done</tspan></text><path
     inkscape:connector-curvature="0"
     id="path9420-0"
     d="m 82.202066,35.142721 v -5.96248"
     style="display:inline;opacity:1;fill:none;stroke:#777777;stroke-width:1.00013;stroke-linecap:butt;stroke-linejoin:miter;stroke-miterlimit:4;stroke-dasharray:none;stroke-opacity:1" /><text
     xml:space="preserve"
     style="font-size:8.39591px;line-height:1.25;font-family:sans-serif;opacity:1;fill:#6e756d;fill-opacity:1;stroke-width:1.00013;stroke-dasharray:none"
     x="-32.218487"
     y="77.446487"
     id="text10428-2"
     transform="matrix(0,-0.99544198,1.0045789,0,0,0)"><tspan
       sodipodi:role="line"
       id="tspan10426-3"
       style="fill:#6e756d;fill-opacity:1;stroke-width:1.00013;stroke-dasharray:none"
       x="-32.218487"
       y="77.446487">Size</tspan></text><text
     xml:space="preserve"
     style="font-size:8.61677px;line-height:1.25;font-family:sans-serif;opacity:1;fill:#6e756d;fill-opacity:1;stroke-width:1.00013;stroke-dasharray:none"
     x="163.01135"
     y="104.41195"
     id="text20127-7"
     transform="scale(0.9796123,1.020812)"><tspan
       sodipodi:role="line"
       id="tspan20125-5"
       style="fill:#6e756d;fill-opacity:1;stroke-width:1.00013;stroke-dasharray:none"
       x="163.01135"
       y="104.41195">write</tspan></text><path
     inkscape:connector-curvature="0"
     id="path20129-9"
     d="m 156.43645,110.46996 h 5.96249"
     style="display:inline;opacity:1;fill:none;stroke:#777777;stroke-width:1.00013;stroke-linecap:butt;stroke-linejoin:miter;stroke-miterlimit:4;stroke-dasharray:none;stroke-opacity:1" /><text
     xml:space="preserve"
     style="font-size:8.38743px;line-height:1.25;font-family:sans-serif;opacity:1;fill:#6e756d;fill-opacity:1;stroke-width:1.00013;stroke-dasharray:none"
     x="167.47952"
     y="79.097183"
     id="text21039-2"
     transform="scale(0.95354055,1.0487231)"><tspan
       sodipodi:role="line"
       id="tspan21037-2"
       style="fill:#6e756d;fill-opacity:1;stroke-width:1.00013;stroke-dasharray:none"
       x="167.47952"
       y="79.097183">data[7:0]</tspan></text><path
     inkscape:connector-curvature="0"
     id="path21041-8"
     d="m 156.43645,88.798063 h 5.96249"
     style="display:inline;opacity:1;fill:none;stroke:#777777;stroke-width:2.64583;stroke-linecap:butt;stroke-linejoin:miter;stroke-miterlimit:4;stroke-dasharray:none;stroke-opacity:1" /><text
     xml:space="preserve"
     style="font-size:8.51891px;line-height:1.25;font-family:sans-serif;opacity:1;fill:#6e756d;fill-opacity:1;stroke-width:1.00013;stroke-dasharray:none"
     x="6.6228027"
     y="82.402199"
     id="text22859-7"
     transform="scale(0.96848736,1.032538)"><tspan
       sodipodi:role="line"
       id="tspan22857-3"
       style="fill:#6e756d;fill-opacity:1;stroke-width:1.00013;stroke-dasharray:none"
       x="6.6228027"
       y="82.402199">start</tspan></text><path
     inkscape:connector-curvature="0"
     id="path1329"
     d="m 38.831506,35.292678 v -5.96248"
     style="display:inline;opacity:1;fill:none;stroke:#777777;stroke-width:1.00013;stroke-linecap:butt;stroke-linejoin:miter;stroke-miterlimit:4;stroke-dasharray:none;stroke-opacity:1" /><text
     xml:space="preserve"
     style="font-size:8.39591px;line-height:1.25;font-family:sans-serif;opacity:1;fill:#6e756d;fill-opacity:1;stroke-width:1.00013;stroke-dasharray:none"
     x="-32.369129"
     y="34.273609"
     id="text1333"
     transform="matrix(0,-0.99544198,1.0045789,0,0,0)"><tspan
       sodipodi:role="line"
       id="tspan1331"
       style="fill:#6e756d;fill-opacity:1;stroke-width:1.00013;stroke-dasharray:none"
       x="-32.369129"
       y="34.273609">C</tspan></text><path
     inkscape:connector-curvature="0"
     id="path1502"
     d="m 60.454266,35.272213 v -5.96248"
     style="display:inline;opacity:1;fill:none;stroke:#777777;stroke-width:1.00013;stroke-linecap:butt;stroke-linejoin:miter;stroke-miterlimit:4;stroke-dasharray:none;stroke-opacity:1" /><text
     xml:space="preserve"
     style="font-size:8.39591px;line-height:1.25;font-family:sans-serif;opacity:1;fill:#6e756d;fill-opacity:1;stroke-width:1.00013;stroke-dasharray:none"
     x="-32.348572"
     y="55.79781"
     id="text1506"
     transform="matrix(0,-0.99544198,1.0045789,0,0,0)"><tspan
       sodipodi:role="line"
       id="tspan1504"
       style="fill:#6e756d;fill-opacity:1;stroke-width:1.00013;stroke-dasharray:none"
       x="-32.348572"
       y="55.79781">B</tspan></text><path
     inkscape:connector-curvature="0"
     id="path1438"
     d="m 156.43645,67.358437 h 5.96249"
     style="display:inline;opacity:1;fill:none;stroke:#777777;stroke-width:1.00013;stroke-linecap:butt;stroke-linejoin:miter;stroke-miterlimit:4;stroke-dasharray:none;stroke-opacity:1" /><path
     d="m 127.89409,80.017001 c 0,1.866119 -1.21335,1.631262 -2.03207,1.631262 H 58.159583 c -0.818708,0 -1.486189,-0.677501 -1.486189,-2.54362 V 42.004445 c 0,-1.87054 0.667481,-1.592088 1.486189,-1.592088 h 67.702437 c 0.81872,0 2.03207,-0.27403 2.03207,1.592088 z"
     fill="#87ad34"
     stroke="#303030"
     stroke-width="0.542365"
     id="path1050"
     sodipodi:nodetypes="sssssssss"
     style="display:inline;opacity:1" /><path
     d="m 61.867234,45.59332 h 3.765012 v 3.851005 h -3.765012 z"
     opacity="0.99"
     fill="#1a1a1a"
     fill-opacity="0.866"
     stroke="#1a1a1a"
     stroke-width="0.0445781"
     id="path1052"
     style="display:inline;opacity:1" /><path
     d="m 65.632246,45.59332 h 3.765013 v 3.851005 h -3.765013 z m 3.765013,0 h 3.759797 v 3.851005 h -3.759797 z m 3.765013,0 h 3.754582 v 3.851005 h -3.754582 z m 3.754582,0 h 3.765013 v 3.851005 h -3.759798 z"
     opacity="0.99"
     fill="#1a1a1a"
     fill-opacity="0.102"
     stroke="#1a1a1a"
     stroke-width="0.0445781"
     stroke-opacity="0.102"
     id="path1054"
     style="display:inline;opacity:1" /><path
     d="m 61.867234,49.449666 h 3.765012 v 3.845663 h -3.765012 z"
     opacity="0.99"
     fill="#1a1a1a"
     fill-opacity="0.866"
     stroke="#1a1a1a"
     stroke-width="0.0445781"
     id="path1056"
     style="display:inline;opacity:1" /><path
     d="m 65.632246,49.449666 h 3.765013 v 3.845663 h -3.765013 z m 3.765013,0 h 3.759797 v 3.845663 h -3.759797 z m 3.765013,0 h 3.754582 v 3.845663 h -3.754582 z m 3.754582,0 h 3.765013 v 3.845663 h -3.759798 z"
     opacity="0.99"
     fill="#1a1a1a"
     fill-opacity="0.102"
     stroke="#1a1a1a"
     stroke-width="0.0445781"
     stroke-opacity="0.102"
     id="path1058"
     style="display:inline;opacity:1" /><path
     d="m 61.867234,53.295329 h 3.765012 v 3.856346 h -3.765012 z"
     opacity="0.99"
     fill="#1a1a1a"
     fill-opacity="0.866"
     stroke="#1a1a1a"
     stroke-width="0.0445781"
     id="path1060"
     style="display:inline;opacity:1" /><path
     d="m 65.632246,53.295329 h 3.765013 v 3.856346 h -3.765013 z m 3.765013,0 h 3.759797 v 3.856346 h -3.759797 z m 3.765013,0 h 3.754582 v 3.856346 h -3.754582 z m 3.754582,0 h 3.765013 v 3.856346 h -3.759798 z"
     opacity="0.99"
     fill="#1a1a1a"
     fill-opacity="0.102"
     stroke="#1a1a1a"
     stroke-width="0.0445781"
     stroke-opacity="0.102"
     id="path1062"
     style="display:inline;opacity:1" /><path
     d="m 61.867234,57.151675 h 3.765012 v 3.856346 h -3.765012 z"
     opacity="0.99"
     fill="#1a1a1a"
     fill-opacity="0.866"
     stroke="#1a1a1a"
     stroke-width="0.0445781"
     id="path1064"
     style="display:inline;opacity:1" /><path
     d="m 65.632246,57.151675 h 3.765013 v 3.856346 h -3.765013 z m 3.765013,0 h 3.759797 v 3.856346 h -3.759797 z m 3.765013,0 h 3.754582 v 3.856346 h -3.754582 z m 3.754582,0 h 3.765013 v 3.856346 h -3.759798 z"
     opacity="0.99"
     fill="#1a1a1a"
     fill-opacity="0.102"
     stroke="#1a1a1a"
     stroke-width="0.0445781"
     stroke-opacity="0.102"
     id="path1066"
     style="display:inline;opacity:1" /><path
     d="m 61.867234,61.008021 h 3.765012 v 3.856346 h -3.765012 z"
     opacity="0.99"
     fill="#1a1a1a"
     fill-opacity="0.866"
     stroke="#1a1a1a"
     stroke-width="0.0445781"
     id="path1068"
     style="display:inline;opacity:1" /><path
     d="m 65.632246,61.008021 h 3.765013 v 3.856346 h -3.765013 z m 3.765013,0 h 3.759797 v 3.856346 h -3.759797 z m 3.765013,0 h 3.754582 v 3.856346 h -3.754582 z m 3.754582,0 h 3.765013 v 3.856346 h -3.759798 z"
     opacity="0.99"
     fill="#1a1a1a"
     fill-opacity="0.102"
     stroke="#1a1a1a"
     stroke-width="0.0445781"
     stroke-opacity="0.102"
     id="path1070"
     style="display:inline;opacity:1" /><path
     d="m 61.867234,64.864367 h 3.765012 v 3.851004 h -3.765012 z"
     opacity="0.99"
     fill="#1a1a1a"
     fill-opacity="0.866"
     stroke="#1a1a1a"
     stroke-width="0.0445781"
     id="path1072"
     style="display:inline;opacity:1" /><path
     d="m 65.632246,64.864367 h 3.765013 v 3.851004 h -3.765013 z m 3.765013,0 h 3.759797 v 3.851004 h -3.759797 z m 3.765013,0 h 3.754582 v 3.851004 h -3.754582 z m 3.754582,0 h 3.765013 v 3.851004 h -3.759798 z"
     opacity="0.99"
     fill="#1a1a1a"
     fill-opacity="0.102"
     stroke="#1a1a1a"
     stroke-width="0.0445781"
     stroke-opacity="0.102"
     id="path1074"
     style="display:inline;opacity:1" /><path
     d="m 61.867234,68.715371 h 3.765012 v 3.856346 h -3.765012 z"
     opacity="0.99"
     fill="#1a1a1a"
     fill-opacity="0.866"
     stroke="#1a1a1a"
     stroke-width="0.0445781"
     id="path1076"
     style="display:inline;opacity:1" /><path
     d="m 65.632246,68.715371 h 3.765013 v 3.856346 h -3.765013 z m 3.765013,0 h 3.759797 v 3.856346 h -3.759797 z m 3.765013,0 h 3.754582 v 3.856346 h -3.754582 z m 3.754582,0 h 3.765013 v 3.856346 h -3.759798 z"
     opacity="0.99"
     fill="#1a1a1a"
     fill-opacity="0.102"
     stroke="#1a1a1a"
     stroke-width="0.0445781"
     stroke-opacity="0.102"
     id="path1078"
     style="display:inline;opacity:1" /><path
     d="m 61.867234,72.571717 h 3.765012 v 3.851005 h -3.765012 z m 3.765012,0 h 3.765013 v 3.851005 h -3.765013 z m 3.765013,0 h 3.759797 v 3.851005 h -3.759797 z m 3.765013,0 h 3.754582 v 3.851005 h -3.754582 z m 3.754582,0 h 3.765013 v 3.851005 h -3.759798 z"
     opacity="0.99"
     fill="#1a1a1a"
     fill-opacity="0.866"
     stroke="#1a1a1a"
     stroke-width="0.0445781"
     id="path1080"
     style="display:inline;opacity:1" /><path
     d="m 82.564373,45.59332 h 3.765012 v 3.851005 h -3.765012 z"
     opacity="0.99"
     fill="#1a1a1a"
     fill-opacity="0.102"
     stroke="#1a1a1a"
     stroke-width="0.0445781"
     stroke-opacity="0.102"
     id="path1082"
     style="display:inline;opacity:1" /><path
     d="m 86.329385,45.59332 h 3.759795 v 3.851005 h -3.759795 z m 3.759795,0 h 3.765016 v 3.851005 H 90.08918 Z m 3.765016,0 h 3.76502 v 3.851005 h -3.76502 z"
     opacity="0.99"
     fill="#1a1a1a"
     fill-opacity="0.866"
     stroke="#1a1a1a"
     stroke-width="0.0445781"
     id="path1084"
     style="display:inline;opacity:1" /><path
     d="m 97.619216,45.59332 h 3.759804 v 3.851005 h -3.759804 z"
     opacity="0.99"
     fill="#1a1a1a"
     fill-opacity="0.102"
     stroke="#1a1a1a"
     stroke-width="0.0445781"
     stroke-opacity="0.102"
     id="path1086"
     style="display:inline;opacity:1" /><path
     d="m 82.564373,49.449666 h 3.765012 v 3.845663 h -3.765012 z"
     opacity="0.99"
     fill="#1a1a1a"
     fill-opacity="0.866"
     stroke="#1a1a1a"
     stroke-width="0.0445781"
     id="path1088"
     style="display:inline;opacity:1" /><path
     d="m 86.329385,49.449666 h 3.759795 v 3.845663 h -3.759795 z m 3.759795,0 h 3.765016 v 3.845663 H 90.08918 Z m 3.765016,0 h 3.76502 v 3.845663 h -3.76502 z"
     opacity="0.99"
     fill="#1a1a1a"
     fill-opacity="0.102"
     stroke="#1a1a1a"
     stroke-width="0.0445781"
     stroke-opacity="0.102"
     id="path1090"
     style="display:inline;opacity:1" /><path
     d="m 97.619216,49.449666 h 3.759804 v 3.845663 h -3.759804 z m -15.054843,3.845663 h 3.765012 v 3.856346 h -3.765012 z"
     opacity="0.99"
     fill="#1a1a1a"
     fill-opacity="0.866"
     stroke="#1a1a1a"
     stroke-width="0.0445781"
     id="path1092"
     style="display:inline;opacity:1" /><path
     d="m 86.329385,53.295329 h 3.759795 v 3.856346 h -3.759795 z m 3.759795,0 h 3.765016 v 3.856346 H 90.08918 Z m 3.765016,0 h 3.76502 v 3.856346 h -3.76502 z m 3.76502,0 h 3.759804 v 3.856346 h -3.759804 z"
     opacity="0.99"
     fill="#1a1a1a"
     fill-opacity="0.102"
     stroke="#1a1a1a"
     stroke-width="0.0445781"
     stroke-opacity="0.102"
     id="path1094"
     style="display:inline;opacity:1" /><path
     d="m 82.564373,57.151675 h 3.765012 v 3.856346 h -3.765012 z"
     opacity="0.99"
     fill="#1a1a1a"
     fill-opacity="0.866"
     stroke="#1a1a1a"
     stroke-width="0.0445781"
     id="path1096"
     style="display:inline;opacity:1" /><path
     d="m 86.329385,57.151675 h 3.759795 v 3.856346 h -3.759795 z m 3.759795,0 h 3.765016 v 3.856346 H 90.08918 Z m 3.765016,0 h 3.76502 v 3.856346 h -3.76502 z m 3.76502,0 h 3.759804 v 3.856346 h -3.759804 z"
     opacity="0.99"
     fill="#1a1a1a"
     fill-opacity="0.102"
     stroke="#1a1a1a"
     stroke-width="0.0445781"
     stroke-opacity="0.102"
     id="path1098"
     style="display:inline;opacity:1" /><path
     d="m 82.564373,61.008021 h 3.765012 v 3.856346 h -3.765012 z"
     opacity="0.99"
     fill="#1a1a1a"
     fill-opacity="0.866"
     stroke="#1a1a1a"
     stroke-width="0.0445781"
     id="path1100"
     style="display:inline;opacity:1" /><path
     d="m 86.329385,61.008021 h 3.759795 v 3.856346 h -3.759795 z m 3.759795,0 h 3.765016 v 3.856346 H 90.08918 Z m 3.765016,0 h 3.76502 v 3.856346 h -3.76502 z m 3.76502,0 h 3.759804 v 3.856346 h -3.759804 z"
     opacity="0.99"
     fill="#1a1a1a"
     fill-opacity="0.102"
     stroke="#1a1a1a"
     stroke-width="0.0445781"
     stroke-opacity="0.102"
     id="path1102"
     style="display:inline;opacity:1" /><path
     d="m 82.564373,64.864367 h 3.765012 v 3.851004 h -3.765012 z"
     opacity="0.99"
     fill="#1a1a1a"
     fill-opacity="0.866"
     stroke="#1a1a1a"
     stroke-width="0.0445781"
     id="path1104"
     style="display:inline;opacity:1" /><path
     d="m 86.329385,64.864367 h 3.759795 v 3.851004 h -3.759795 z m 3.759795,0 h 3.765016 v 3.851004 H 90.08918 Z m 3.765016,0 h 3.76502 v 3.851004 h -3.76502 z m 3.76502,0 h 3.759804 v 3.851004 h -3.759804 z"
     opacity="0.99"
     fill="#1a1a1a"
     fill-opacity="0.102"
     stroke="#1a1a1a"
     stroke-width="0.0445781"
     stroke-opacity="0.102"
     id="path1106"
     style="display:inline;opacity:1" /><path
     d="m 82.564373,68.715371 h 3.765012 v 3.856346 h -3.765012 z"
     opacity="0.99"
     fill="#1a1a1a"
     fill-opacity="0.866"
     stroke="#1a1a1a"
     stroke-width="0.0445781"
     id="path1108"
     style="display:inline;opacity:1" /><path
     d="m 86.329385,68.715371 h 3.759795 v 3.856346 h -3.759795 z m 3.759795,0 h 3.765016 v 3.856346 H 90.08918 Z m 3.765016,0 h 3.76502 v 3.856346 h -3.76502 z"
     opacity="0.99"
     fill="#1a1a1a"
     fill-opacity="0.102"
     stroke="#1a1a1a"
     stroke-width="0.0445781"
     stroke-opacity="0.102"
     id="path1110"
     style="display:inline;opacity:1" /><path
     d="m 97.619216,68.715371 h 3.759804 v 3.856346 h -3.759804 z"
     opacity="0.99"
     fill="#1a1a1a"
     fill-opacity="0.866"
     stroke="#1a1a1a"
     stroke-width="0.0445781"
     id="path1112"
     style="display:inline;opacity:1" /><path
     d="m 82.564373,72.571717 h 3.765012 v 3.851005 h -3.765012 z"
     opacity="0.99"
     fill="#1a1a1a"
     fill-opacity="0.102"
     stroke="#1a1a1a"
     stroke-width="0.0445781"
     stroke-opacity="0.102"
     id="path1114"
     style="display:inline;opacity:1" /><path
     d="m 86.329385,72.571717 h 3.759795 v 3.851005 h -3.759795 z m 3.759795,0 h 3.765016 v 3.851005 H 90.08918 Z m 3.765016,0 h 3.76502 v 3.851005 h -3.76502 z"
     opacity="0.99"
     fill="#1a1a1a"
     fill-opacity="0.866"
     stroke="#1a1a1a"
     stroke-width="0.0445781"
     id="path1116"
     style="display:inline;opacity:1" /><path
     d="m 97.619216,72.571717 h 3.759804 v 3.851005 h -3.759804 z"
     opacity="0.99"
     fill="#1a1a1a"
     fill-opacity="0.102"
     stroke="#1a1a1a"
     stroke-width="0.0445781"
     stroke-opacity="0.102"
     id="path1118"
     style="display:inline;opacity:1" /><path
     d="m 103.26152,45.59332 h 3.76501 v 3.851005 h -3.76501 z m 3.76501,0 h 3.7598 v 3.851005 h -3.7598 z m 3.7598,0 h 3.76501 v 3.851005 h -3.76501 z"
     opacity="0.99"
     fill="#1a1a1a"
     fill-opacity="0.866"
     stroke="#1a1a1a"
     stroke-width="0.0445781"
     id="path1120"
     style="display:inline;opacity:1" /><path
     d="m 114.55134,45.59332 h 3.7598 v 3.851005 h -3.7598 z"
     opacity="0.99"
     fill="#1a1a1a"
     fill-opacity="0.102"
     stroke="#1a1a1a"
     stroke-width="0.0445781"
     stroke-opacity="0.102"
     id="path1122"
     style="display:inline;opacity:1" /><path
     d="m 118.31114,45.59332 h 3.76501 v 3.851005 h -3.76501 z"
     opacity="0.99"
     fill="#1a1a1a"
     fill-opacity="0.102"
     stroke="#1a1a1a"
     stroke-width="0.0445781"
     stroke-opacity="0.102"
     id="path1124"
     style="display:inline;opacity:1" /><path
     d="m 103.26152,49.449666 h 3.76501 v 3.845663 h -3.76501 z"
     opacity="0.99"
     fill="#1a1a1a"
     fill-opacity="0.866"
     stroke="#1a1a1a"
     stroke-width="0.0445781"
     id="path1126"
     style="display:inline;opacity:1" /><path
     d="m 107.02653,49.449666 h 3.7598 v 3.845663 h -3.7598 z m 3.7598,0 h 3.76501 v 3.845663 h -3.76501 z"
     opacity="0.99"
     fill="#1a1a1a"
     fill-opacity="0.102"
     stroke="#1a1a1a"
     stroke-width="0.0445781"
     stroke-opacity="0.102"
     id="path1128"
     style="display:inline;opacity:1" /><path
     d="m 114.55134,49.449666 h 3.7598 v 3.845663 h -3.7598 z"
     opacity="0.99"
     fill="#1a1a1a"
     fill-opacity="0.866"
     stroke="#1a1a1a"
     stroke-width="0.0445781"
     id="path1130"
     style="display:inline;opacity:1" /><path
     d="m 118.31114,49.449666 h 3.76501 v 3.845663 h -3.76501 z"
     opacity="0.99"
     fill="#1a1a1a"
     fill-opacity="0.102"
     stroke="#1a1a1a"
     stroke-width="0.0445781"
     stroke-opacity="0.102"
     id="path1132"
     style="display:inline;opacity:1" /><path
     d="m 103.26152,53.295329 h 3.76501 v 3.856346 h -3.76501 z"
     opacity="0.99"
     fill="#1a1a1a"
     fill-opacity="0.866"
     stroke="#1a1a1a"
     stroke-width="0.0445781"
     id="path1134"
     style="display:inline;opacity:1" /><path
     d="m 107.02653,53.295329 h 3.7598 v 3.856346 h -3.7598 z m 3.7598,0 h 3.76501 v 3.856346 h -3.76501 z m 3.76501,0 h 3.7598 v 3.856346 h -3.7598 z"
     opacity="0.99"
     fill="#1a1a1a"
     fill-opacity="0.102"
     stroke="#1a1a1a"
     stroke-width="0.0445781"
     stroke-opacity="0.102"
     id="path1136"
     style="display:inline;opacity:1" /><path
     d="m 118.31114,53.295329 h 3.76501 v 3.856346 h -3.76501 z m -15.04962,3.856346 h 3.76501 v 3.856346 h -3.76501 z"
     opacity="0.99"
     fill="#1a1a1a"
     fill-opacity="0.866"
     stroke="#1a1a1a"
     stroke-width="0.0445781"
     id="path1138"
     style="display:inline;opacity:1" /><path
     d="m 107.02653,57.151675 h 3.7598 v 3.856346 h -3.7598 z m 3.7598,0 h 3.76501 v 3.856346 h -3.76501 z m 3.76501,0 h 3.7598 v 3.856346 h -3.7598 z"
     opacity="0.99"
     fill="#1a1a1a"
     fill-opacity="0.102"
     stroke="#1a1a1a"
     stroke-width="0.0445781"
     stroke-opacity="0.102"
     id="path1140"
     style="display:inline;opacity:1" /><path
     d="m 118.31114,57.151675 h 3.76501 v 3.856346 h -3.76501 z m -15.04962,3.856346 h 3.76501 v 3.856346 h -3.76501 z"
     opacity="0.99"
     fill="#1a1a1a"
     fill-opacity="0.866"
     stroke="#1a1a1a"
     stroke-width="0.0445781"
     id="path1142"
     style="display:inline;opacity:1" /><path
     d="m 107.02653,61.008021 h 3.7598 v 3.856346 h -3.7598 z m 3.7598,0 h 3.76501 v 3.856346 h -3.76501 z m 3.76501,0 h 3.7598 v 3.856346 h -3.7598 z"
     opacity="0.99"
     fill="#1a1a1a"
     fill-opacity="0.102"
     stroke="#1a1a1a"
     stroke-width="0.0445781"
     stroke-opacity="0.102"
     id="path1144"
     style="display:inline;opacity:1" /><path
     d="m 118.31114,61.008021 h 3.76501 v 3.856346 h -3.76501 z m -15.04962,3.856346 h 3.76501 v 3.851004 h -3.76501 z"
     opacity="0.99"
     fill="#1a1a1a"
     fill-opacity="0.866"
     stroke="#1a1a1a"
     stroke-width="0.0445781"
     id="path1146"
     style="display:inline;opacity:1" /><path
     d="m 107.02653,64.864367 h 3.7598 v 3.851004 h -3.7598 z m 3.7598,0 h 3.76501 v 3.851004 h -3.76501 z m 3.76501,0 h 3.7598 v 3.851004 h -3.7598 z"
     opacity="0.99"
     fill="#1a1a1a"
     fill-opacity="0.102"
     stroke="#1a1a1a"
     stroke-width="0.0445781"
     stroke-opacity="0.102"
     id="path1148"
     style="display:inline;opacity:1" /><path
     d="m 118.31114,64.864367 h 3.76501 v 3.851004 h -3.76501 z m -15.04962,3.851004 h 3.76501 v 3.856346 h -3.76501 z"
     opacity="0.99"
     fill="#1a1a1a"
     fill-opacity="0.866"
     stroke="#1a1a1a"
     stroke-width="0.0445781"
     id="path1150"
     style="display:inline;opacity:1" /><path
     d="m 107.02653,68.715371 h 3.7598 v 3.856346 h -3.7598 z m 3.7598,0 h 3.76501 v 3.856346 h -3.76501 z"
     opacity="0.99"
     fill="#1a1a1a"
     fill-opacity="0.102"
     stroke="#1a1a1a"
     stroke-width="0.0445781"
     stroke-opacity="0.102"
     id="path1152"
     style="display:inline;opacity:1" /><path
     d="m 114.55134,68.715371 h 3.7598 v 3.856346 h -3.7598 z"
     opacity="0.99"
     fill="#1a1a1a"
     fill-opacity="0.866"
     stroke="#1a1a1a"
     stroke-width="0.0445781"
     id="path1154"
     style="display:inline;opacity:1" /><path
     d="m 118.31114,68.715371 h 3.76501 v 3.856346 h -3.76501 z"
     opacity="0.99"
     fill="#1a1a1a"
     fill-opacity="0.102"
     stroke="#1a1a1a"
     stroke-width="0.0445781"
     stroke-opacity="0.102"
     id="path1156"
     style="display:inline;opacity:1" /><path
     d="m 103.26152,72.571717 h 3.76501 v 3.851005 h -3.76501 z m 3.76501,0 h 3.7598 v 3.851005 h -3.7598 z m 3.7598,0 h 3.76501 v 3.851005 h -3.76501 z"
     opacity="0.99"
     fill="#1a1a1a"
     fill-opacity="0.866"
     stroke="#1a1a1a"
     stroke-width="0.0445781"
     id="path1158"
     style="display:inline;opacity:1" /><path
     d="m 114.55134,72.571717 h 3.7598 v 3.851005 h -3.7598 z"
     opacity="0.99"
     fill="#1a1a1a"
     fill-opacity="0.102"
     stroke="#1a1a1a"
     stroke-width="0.0445781"
     stroke-opacity="0.102"
     id="path1160"
     style="display:inline;opacity:1" /><path
     d="m 118.31114,72.571717 h 3.76501 v 3.851005 h -3.76501 z"
     opacity="0.99"
     fill="#1a1a1a"
     fill-opacity="0.102"
     stroke="#1a1a1a"
     stroke-width="0.0445781"
     stroke-opacity="0.102"
     id="path1162"
     style="display:inline;opacity:1" /><path
     style="display:inline;fill:#0088aa;stroke-width:0.163814;opacity:1"
     d="m 117.70364,131.21567 c 0.83972,0.8397 0.83972,2.20149 0,3.04119 l -1.73767,1.739 c -0.83969,0.83969 -2.2028,0.83969 -3.0425,0 l -12.27576,-12.27708 4.78019,-4.78018 z"
     id="path3000" /><polygon
     style="display:inline;fill:#999999;stroke-width:1.61902;opacity:1"
     points="97.717,44.397 100.404,73.466 99.562,74.307 249.486,224.232 288.578,263.324 359.647,334.393 334.923,359.104 263.867,288.048 224.775,248.957 74.837,99.032 74.008,99.861 44.927,97.174 0.53,26.382 26.925,0 "
     id="polygon3008"
     transform="matrix(0.10118077,0,0,0.10118077,66.582463,84.928298)" /><path
     style="display:inline;fill:#006680;stroke-width:0.163814;opacity:1"
     d="m 106.42726,116.76979 -0.86408,2.30409 -4.78019,4.78018 -2.304194,0.86408 c -0.18445,0.0692 -0.39228,0.0242 -0.5317,-0.11504 l -1.17907,-1.17805 c -0.19639,-0.19619 -0.1965,-0.51441 -3e-4,-0.71069 l 2.57627,-2.57748 2.501694,-2.50028 2.57626,-2.57748 c 0.19619,-0.19639 0.51451,-0.19639 0.7107,-10e-5 l 1.17906,1.17906 c 0.13972,0.13912 0.18476,0.34715 0.11555,0.53171 z"
     id="path3010" /><path
     style="display:inline;fill:#999999;stroke-width:0.163814;opacity:1"
     d="m 113.33993,86.702401 c 2.81809,2.644967 2.87221,7.076281 0.15956,9.788938 -0.78972,0.789713 -1.72686,1.344085 -2.72207,1.664626 -1.51042,0.48678 -2.89114,1.310292 -4.01344,2.434005 l -12.197444,12.19613 -3.955358,-3.95536 8.458408,-8.45841 c 2.087874,-2.087862 3.168274,-5.006017 2.841064,-7.940364 -0.23798,-2.124393 0.5233,-4.339341 2.28123,-5.884975 0.98033,-0.862772 2.15818,-1.392854 3.38196,-1.591574 l -1.27113,4.075663 c -0.0933,0.298883 -0.13791,0.601723 -0.13791,0.899294 0,1.28196 0.82624,2.47053 2.11629,2.873535 1.58753,0.494871 3.27785,-0.390765 3.77272,-1.978289 z"
     id="path3002" /><path
     style="display:inline;fill:#999999;stroke-width:0.163814;opacity:1"
     d="m 95.218736,112.52515 -8.927275,8.92586 c -2.087866,2.08787 -3.169691,5.00603 -2.841056,7.94036 0.236662,2.12572 -0.523307,4.33935 -2.281221,5.8863 -0.981758,0.86136 -2.159502,1.39144 -3.381968,1.59025 l 1.271134,-4.07434 c 0.494875,-1.58884 -0.39076,-3.27785 -1.978286,-3.77273 v -0.001 c -1.588842,-0.49488 -3.277853,0.39076 -3.772728,1.9797 l -1.287323,4.1217 c -2.818087,-2.64496 -2.872219,-7.07496 -0.159562,-9.78752 0.791032,-0.79103 1.726852,-1.34549 2.722067,-1.66594 1.511842,-0.48679 2.892454,-1.31028 4.014852,-2.43269 l 12.666214,-12.66501 z"
     id="path3004" /><path
     inkscape:connector-curvature="0"
     id="path2196"
     d="m 103.04338,35.142721 v -5.96248"
     style="display:inline;opacity:1;fill:none;stroke:#777777;stroke-width:1.00013;stroke-linecap:butt;stroke-linejoin:miter;stroke-miterlimit:4;stroke-dasharray:none;stroke-opacity:1" /><text
     xml:space="preserve"
     style="font-size:8.39591px;line-height:1.25;font-family:sans-serif;opacity:1;fill:#6e756d;fill-opacity:1;stroke-width:1.00013;stroke-dasharray:none"
     x="-32.218487"
     y="98.192802"
     id="text2200"
     transform="matrix(0,-0.99544198,1.0045789,0,0,0)"><tspan
       sodipodi:role="line"
       id="tspan2198"
       style="fill:#6e756d;fill-opacity:1;stroke-width:1.00013;stroke-dasharray:none"
       x="-32.218487"
       y="98.192802">mem</tspan></text><path
     inkscape:connector-curvature="0"
     id="path2307"
     d="m 124.59393,35.142721 v -5.96248"
     style="display:inline;opacity:1;fill:none;stroke:#777777;stroke-width:1.00013;stroke-linecap:butt;stroke-linejoin:miter;stroke-miterlimit:4;stroke-dasharray:none;stroke-opacity:1" /><text
     xml:space="preserve"
     style="font-size:8.39591px;line-height:1.25;font-family:sans-serif;opacity:1;fill:#6e756d;fill-opacity:1;stroke-width:1.00013;stroke-dasharray:none"
     x="-32.218487"
     y="119.64513"
     id="text2311"
     transform="matrix(0,-0.99544198,1.0045789,0,0,0)"><tspan
       sodipodi:role="line"
       id="tspan2309"
       style="fill:#6e756d;fill-opacity:1;stroke-width:1.00013;stroke-dasharray:none"
       x="-32.218487"
       y="119.64513">dir_disp</tspan></text><path
     inkscape:connector-curvature="0"
     id="path2313"
     d="m 146.28995,35.142721 v -5.96248"
     style="display:inline;opacity:1;fill:none;stroke:#777777;stroke-width:1.00013;stroke-linecap:butt;stroke-linejoin:miter;stroke-miterlimit:4;stroke-dasharray:none;stroke-opacity:1" /><text
     xml:space="preserve"
     style="font-size:8.39591px;line-height:1.25;font-family:sans-serif;opacity:1;fill:#6e756d;fill-opacity:1;stroke-width:1.00013;stroke-dasharray:none"
     x="-32.218487"
     y="141.24225"
     id="text2317"
     transform="matrix(0,-0.99544198,1.0045789,0,0,0)"><tspan
       sodipodi:role="line"
       id="tspan2315"
       style="fill:#6e756d;fill-opacity:1;stroke-width:1.00013;stroke-dasharray:none"
       x="-32.218487"
       y="141.24225">init</tspan></text></svg>
