<?xml version="1.0" encoding="UTF-8" standalone="no"?>
<!-- Created with Inkscape (http://www.inkscape.org/) -->

<svg
   width="119.0004mm"
   height="137.22731mm"
   viewBox="0 0 119.0004 137.22732"
   version="1.1"
   id="svg5"
   xml:space="preserve"
   inkscape:version="1.2 (dc2aeda, 2022-05-15)"
   sodipodi:docname="lcd-cycle.svg"
   xmlns:inkscape="http://www.inkscape.org/namespaces/inkscape"
   xmlns:sodipodi="http://sodipodi.sourceforge.net/DTD/sodipodi-0.dtd"
   xmlns="http://www.w3.org/2000/svg"
   xmlns:svg="http://www.w3.org/2000/svg"><sodipodi:namedview
     id="namedview7"
     pagecolor="#ffffff"
     bordercolor="#666666"
     borderopacity="1.0"
     inkscape:showpageshadow="2"
     inkscape:pageopacity="0.0"
     inkscape:pagecheckerboard="0"
     inkscape:deskcolor="#d1d1d1"
     inkscape:document-units="mm"
     showgrid="false"
     inkscape:zoom="1.1893044"
     inkscape:cx="229.54594"
     inkscape:cy="242.57877"
     inkscape:window-width="1858"
     inkscape:window-height="1016"
     inkscape:window-x="62"
     inkscape:window-y="27"
     inkscape:window-maximized="1"
     inkscape:current-layer="layer1"
     showguides="true" /><defs
     id="defs2">
	
	
</defs><g
     inkscape:label="Capa 1"
     inkscape:groupmode="layer"
     id="layer1"
     transform="translate(-45.940641,-39.645815)"
     style="display:inline"><path
       d="m 162.95666,104.08831 c 0,3.01405 -1.95975,2.63472 -3.28208,2.63472 H 50.325425 c -1.32233,0 -2.400409,-1.09426 -2.400409,-4.10831 V 42.692573 c 0,-3.021191 1.078079,-2.571451 2.400409,-2.571451 H 159.67458 c 1.32233,0 3.28208,-0.442597 3.28208,2.571451 z"
       fill="#87ad34"
       stroke="#303030"
       stroke-width="0.875998"
       id="path1050"
       sodipodi:nodetypes="sssssssss" /><path
       d="m 56.313814,48.489121 h 6.081035 v 6.219926 h -6.081035 z"
       opacity="0.99"
       fill="#1a1a1a"
       fill-opacity="0.866"
       stroke="#1a1a1a"
       stroke-width="0.072"
       id="path1052" /><path
       d="m 62.394849,48.489121 h 6.081036 v 6.219926 h -6.081036 z m 6.081036,0 h 6.072613 v 6.219926 h -6.072613 z m 6.081036,0 h 6.06419 v 6.219926 h -6.06419 z m 6.06419,0 h 6.081036 v 6.219926 h -6.072613 z"
       opacity="0.99"
       fill="#1a1a1a"
       fill-opacity="0.102"
       stroke="#1a1a1a"
       stroke-width="0.072"
       stroke-opacity="0.102"
       id="path1054" /><path
       d="m 56.313814,54.717674 h 6.081035 v 6.211298 h -6.081035 z"
       opacity="0.99"
       fill="#1a1a1a"
       fill-opacity="0.866"
       stroke="#1a1a1a"
       stroke-width="0.072"
       id="path1056" /><path
       d="m 62.394849,54.717674 h 6.081036 v 6.211298 h -6.081036 z m 6.081036,0 h 6.072613 v 6.211298 h -6.072613 z m 6.081036,0 h 6.06419 v 6.211298 h -6.06419 z m 6.06419,0 h 6.081036 v 6.211298 h -6.072613 z"
       opacity="0.99"
       fill="#1a1a1a"
       fill-opacity="0.102"
       stroke="#1a1a1a"
       stroke-width="0.072"
       stroke-opacity="0.102"
       id="path1058" /><path
       d="m 56.313814,60.928972 h 6.081035 v 6.228552 h -6.081035 z"
       opacity="0.99"
       fill="#1a1a1a"
       fill-opacity="0.866"
       stroke="#1a1a1a"
       stroke-width="0.072"
       id="path1060" /><path
       d="m 62.394849,60.928972 h 6.081036 v 6.228552 h -6.081036 z m 6.081036,0 h 6.072613 v 6.228552 h -6.072613 z m 6.081036,0 h 6.06419 v 6.228552 h -6.06419 z m 6.06419,0 h 6.081036 v 6.228552 h -6.072613 z"
       opacity="0.99"
       fill="#1a1a1a"
       fill-opacity="0.102"
       stroke="#1a1a1a"
       stroke-width="0.072"
       stroke-opacity="0.102"
       id="path1062" /><path
       d="m 56.313814,67.157524 h 6.081035 v 6.228553 h -6.081035 z"
       opacity="0.99"
       fill="#1a1a1a"
       fill-opacity="0.866"
       stroke="#1a1a1a"
       stroke-width="0.072"
       id="path1064" /><path
       d="m 62.394849,67.157524 h 6.081036 v 6.228553 h -6.081036 z m 6.081036,0 h 6.072613 v 6.228553 h -6.072613 z m 6.081036,0 h 6.06419 v 6.228553 h -6.06419 z m 6.06419,0 h 6.081036 v 6.228553 h -6.072613 z"
       opacity="0.99"
       fill="#1a1a1a"
       fill-opacity="0.102"
       stroke="#1a1a1a"
       stroke-width="0.072"
       stroke-opacity="0.102"
       id="path1066" /><path
       d="m 56.313814,73.386077 h 6.081035 v 6.228552 h -6.081035 z"
       opacity="0.99"
       fill="#1a1a1a"
       fill-opacity="0.866"
       stroke="#1a1a1a"
       stroke-width="0.072"
       id="path1068" /><path
       d="m 62.394849,73.386077 h 6.081036 v 6.228552 h -6.081036 z m 6.081036,0 h 6.072613 v 6.228552 h -6.072613 z m 6.081036,0 h 6.06419 v 6.228552 h -6.06419 z m 6.06419,0 h 6.081036 v 6.228552 h -6.072613 z"
       opacity="0.99"
       fill="#1a1a1a"
       fill-opacity="0.102"
       stroke="#1a1a1a"
       stroke-width="0.072"
       stroke-opacity="0.102"
       id="path1070" /><path
       d="m 56.313814,79.614629 h 6.081035 v 6.219925 h -6.081035 z"
       opacity="0.99"
       fill="#1a1a1a"
       fill-opacity="0.866"
       stroke="#1a1a1a"
       stroke-width="0.072"
       id="path1072" /><path
       d="m 62.394849,79.614629 h 6.081036 v 6.219925 h -6.081036 z m 6.081036,0 h 6.072613 v 6.219925 h -6.072613 z m 6.081036,0 h 6.06419 v 6.219925 h -6.06419 z m 6.06419,0 h 6.081036 v 6.219925 h -6.072613 z"
       opacity="0.99"
       fill="#1a1a1a"
       fill-opacity="0.102"
       stroke="#1a1a1a"
       stroke-width="0.072"
       stroke-opacity="0.102"
       id="path1074" /><path
       d="m 56.313814,85.834554 h 6.081035 v 6.228552 h -6.081035 z"
       opacity="0.99"
       fill="#1a1a1a"
       fill-opacity="0.866"
       stroke="#1a1a1a"
       stroke-width="0.072"
       id="path1076" /><path
       d="m 62.394849,85.834554 h 6.081036 v 6.228552 h -6.081036 z m 6.081036,0 h 6.072613 v 6.228552 h -6.072613 z m 6.081036,0 h 6.06419 v 6.228552 h -6.06419 z m 6.06419,0 h 6.081036 v 6.228552 h -6.072613 z"
       opacity="0.99"
       fill="#1a1a1a"
       fill-opacity="0.102"
       stroke="#1a1a1a"
       stroke-width="0.072"
       stroke-opacity="0.102"
       id="path1078" /><path
       d="m 56.313814,92.063106 h 6.081035 v 6.219926 h -6.081035 z m 6.081035,0 h 6.081036 v 6.219926 h -6.081036 z m 6.081036,0 h 6.072613 v 6.219926 h -6.072613 z m 6.081036,0 h 6.06419 v 6.219926 h -6.06419 z m 6.06419,0 h 6.081036 v 6.219926 h -6.072613 z"
       opacity="0.99"
       fill="#1a1a1a"
       fill-opacity="0.866"
       stroke="#1a1a1a"
       stroke-width="0.072"
       id="path1080" /><path
       d="M 89.742665,48.489121 H 95.8237 v 6.219926 h -6.081035 z"
       opacity="0.99"
       fill="#1a1a1a"
       fill-opacity="0.102"
       stroke="#1a1a1a"
       stroke-width="0.072"
       stroke-opacity="0.102"
       id="path1082" /><path
       d="m 95.8237,48.489121 h 6.07261 v 6.219926 H 95.8237 Z m 6.07261,0 h 6.08104 v 6.219926 h -6.08104 z m 6.08104,0 h 6.08104 v 6.219926 h -6.08104 z"
       opacity="0.99"
       fill="#1a1a1a"
       fill-opacity="0.866"
       stroke="#1a1a1a"
       stroke-width="0.072"
       id="path1084" /><path
       d="m 114.05839,48.489121 h 6.07261 v 6.219926 h -6.07261 z"
       opacity="0.99"
       fill="#1a1a1a"
       fill-opacity="0.102"
       stroke="#1a1a1a"
       stroke-width="0.072"
       stroke-opacity="0.102"
       id="path1086" /><path
       d="M 89.742665,54.717674 H 95.8237 v 6.211298 h -6.081035 z"
       opacity="0.99"
       fill="#1a1a1a"
       fill-opacity="0.866"
       stroke="#1a1a1a"
       stroke-width="0.072"
       id="path1088" /><path
       d="m 95.8237,54.717674 h 6.07261 v 6.211298 H 95.8237 Z m 6.07261,0 h 6.08104 v 6.211298 h -6.08104 z m 6.08104,0 h 6.08104 v 6.211298 h -6.08104 z"
       opacity="0.99"
       fill="#1a1a1a"
       fill-opacity="0.102"
       stroke="#1a1a1a"
       stroke-width="0.072"
       stroke-opacity="0.102"
       id="path1090" /><path
       d="m 114.05839,54.717674 h 6.07261 v 6.211298 h -6.07261 z M 89.742665,60.928972 H 95.8237 v 6.228552 h -6.081035 z"
       opacity="0.99"
       fill="#1a1a1a"
       fill-opacity="0.866"
       stroke="#1a1a1a"
       stroke-width="0.072"
       id="path1092" /><path
       d="m 95.8237,60.928972 h 6.07261 v 6.228552 H 95.8237 Z m 6.07261,0 h 6.08104 v 6.228552 h -6.08104 z m 6.08104,0 h 6.08104 v 6.228552 h -6.08104 z m 6.08104,0 h 6.07261 v 6.228552 h -6.07261 z"
       opacity="0.99"
       fill="#1a1a1a"
       fill-opacity="0.102"
       stroke="#1a1a1a"
       stroke-width="0.072"
       stroke-opacity="0.102"
       id="path1094" /><path
       d="M 89.742665,67.157524 H 95.8237 v 6.228553 h -6.081035 z"
       opacity="0.99"
       fill="#1a1a1a"
       fill-opacity="0.866"
       stroke="#1a1a1a"
       stroke-width="0.072"
       id="path1096" /><path
       d="m 95.8237,67.157524 h 6.07261 v 6.228553 H 95.8237 Z m 6.07261,0 h 6.08104 v 6.228553 h -6.08104 z m 6.08104,0 h 6.08104 v 6.228553 h -6.08104 z m 6.08104,0 h 6.07261 v 6.228553 h -6.07261 z"
       opacity="0.99"
       fill="#1a1a1a"
       fill-opacity="0.102"
       stroke="#1a1a1a"
       stroke-width="0.072"
       stroke-opacity="0.102"
       id="path1098" /><path
       d="M 89.742665,73.386077 H 95.8237 v 6.228552 h -6.081035 z"
       opacity="0.99"
       fill="#1a1a1a"
       fill-opacity="0.866"
       stroke="#1a1a1a"
       stroke-width="0.072"
       id="path1100" /><path
       d="m 95.8237,73.386077 h 6.07261 v 6.228552 H 95.8237 Z m 6.07261,0 h 6.08104 v 6.228552 h -6.08104 z m 6.08104,0 h 6.08104 v 6.228552 h -6.08104 z m 6.08104,0 h 6.07261 v 6.228552 h -6.07261 z"
       opacity="0.99"
       fill="#1a1a1a"
       fill-opacity="0.102"
       stroke="#1a1a1a"
       stroke-width="0.072"
       stroke-opacity="0.102"
       id="path1102" /><path
       d="M 89.742665,79.614629 H 95.8237 v 6.219925 h -6.081035 z"
       opacity="0.99"
       fill="#1a1a1a"
       fill-opacity="0.866"
       stroke="#1a1a1a"
       stroke-width="0.072"
       id="path1104" /><path
       d="m 95.8237,79.614629 h 6.07261 v 6.219925 H 95.8237 Z m 6.07261,0 h 6.08104 v 6.219925 h -6.08104 z m 6.08104,0 h 6.08104 v 6.219925 h -6.08104 z m 6.08104,0 h 6.07261 v 6.219925 h -6.07261 z"
       opacity="0.99"
       fill="#1a1a1a"
       fill-opacity="0.102"
       stroke="#1a1a1a"
       stroke-width="0.072"
       stroke-opacity="0.102"
       id="path1106" /><path
       d="M 89.742665,85.834554 H 95.8237 v 6.228552 h -6.081035 z"
       opacity="0.99"
       fill="#1a1a1a"
       fill-opacity="0.866"
       stroke="#1a1a1a"
       stroke-width="0.072"
       id="path1108" /><path
       d="m 95.8237,85.834554 h 6.07261 v 6.228552 H 95.8237 Z m 6.07261,0 h 6.08104 v 6.228552 h -6.08104 z m 6.08104,0 h 6.08104 v 6.228552 h -6.08104 z"
       opacity="0.99"
       fill="#1a1a1a"
       fill-opacity="0.102"
       stroke="#1a1a1a"
       stroke-width="0.072"
       stroke-opacity="0.102"
       id="path1110" /><path
       d="m 114.05839,85.834554 h 6.07261 v 6.228552 h -6.07261 z"
       opacity="0.99"
       fill="#1a1a1a"
       fill-opacity="0.866"
       stroke="#1a1a1a"
       stroke-width="0.072"
       id="path1112" /><path
       d="M 89.742665,92.063106 H 95.8237 v 6.219926 h -6.081035 z"
       opacity="0.99"
       fill="#1a1a1a"
       fill-opacity="0.102"
       stroke="#1a1a1a"
       stroke-width="0.072"
       stroke-opacity="0.102"
       id="path1114" /><path
       d="m 95.8237,92.063106 h 6.07261 v 6.219926 H 95.8237 Z m 6.07261,0 h 6.08104 v 6.219926 h -6.08104 z m 6.08104,0 h 6.08104 v 6.219926 h -6.08104 z"
       opacity="0.99"
       fill="#1a1a1a"
       fill-opacity="0.866"
       stroke="#1a1a1a"
       stroke-width="0.072"
       id="path1116" /><path
       d="m 114.05839,92.063106 h 6.07261 v 6.219926 h -6.07261 z"
       opacity="0.99"
       fill="#1a1a1a"
       fill-opacity="0.102"
       stroke="#1a1a1a"
       stroke-width="0.072"
       stroke-opacity="0.102"
       id="path1118" /><path
       d="m 123.17152,48.489121 h 6.08103 v 6.219926 h -6.08103 z m 6.08103,0 h 6.07261 v 6.219926 h -6.07261 z m 6.07261,0 h 6.08104 v 6.219926 h -6.08104 z"
       opacity="0.99"
       fill="#1a1a1a"
       fill-opacity="0.866"
       stroke="#1a1a1a"
       stroke-width="0.072"
       id="path1120" /><path
       d="m 141.4062,48.489121 h 6.07261 v 6.219926 h -6.07261 z"
       opacity="0.99"
       fill="#1a1a1a"
       fill-opacity="0.102"
       stroke="#1a1a1a"
       stroke-width="0.072"
       stroke-opacity="0.102"
       id="path1122" /><path
       d="m 147.47881,48.489121 h 6.08104 v 6.219926 h -6.08104 z"
       opacity="0.99"
       fill="#1a1a1a"
       fill-opacity="0.102"
       stroke="#1a1a1a"
       stroke-width="0.072"
       stroke-opacity="0.102"
       id="path1124" /><path
       d="m 123.17152,54.717674 h 6.08103 v 6.211298 h -6.08103 z"
       opacity="0.99"
       fill="#1a1a1a"
       fill-opacity="0.866"
       stroke="#1a1a1a"
       stroke-width="0.072"
       id="path1126" /><path
       d="m 129.25255,54.717674 h 6.07261 v 6.211298 h -6.07261 z m 6.07261,0 h 6.08104 v 6.211298 h -6.08104 z"
       opacity="0.99"
       fill="#1a1a1a"
       fill-opacity="0.102"
       stroke="#1a1a1a"
       stroke-width="0.072"
       stroke-opacity="0.102"
       id="path1128" /><path
       d="m 141.4062,54.717674 h 6.07261 v 6.211298 h -6.07261 z"
       opacity="0.99"
       fill="#1a1a1a"
       fill-opacity="0.866"
       stroke="#1a1a1a"
       stroke-width="0.072"
       id="path1130" /><path
       d="m 147.47881,54.717674 h 6.08104 v 6.211298 h -6.08104 z"
       opacity="0.99"
       fill="#1a1a1a"
       fill-opacity="0.102"
       stroke="#1a1a1a"
       stroke-width="0.072"
       stroke-opacity="0.102"
       id="path1132" /><path
       d="m 123.17152,60.928972 h 6.08103 v 6.228552 h -6.08103 z"
       opacity="0.99"
       fill="#1a1a1a"
       fill-opacity="0.866"
       stroke="#1a1a1a"
       stroke-width="0.072"
       id="path1134" /><path
       d="m 129.25255,60.928972 h 6.07261 v 6.228552 h -6.07261 z m 6.07261,0 h 6.08104 v 6.228552 h -6.08104 z m 6.08104,0 h 6.07261 v 6.228552 h -6.07261 z"
       opacity="0.99"
       fill="#1a1a1a"
       fill-opacity="0.102"
       stroke="#1a1a1a"
       stroke-width="0.072"
       stroke-opacity="0.102"
       id="path1136" /><path
       d="m 147.47881,60.928972 h 6.08104 v 6.228552 h -6.08104 z m -24.30729,6.228552 h 6.08103 v 6.228553 h -6.08103 z"
       opacity="0.99"
       fill="#1a1a1a"
       fill-opacity="0.866"
       stroke="#1a1a1a"
       stroke-width="0.072"
       id="path1138" /><path
       d="m 129.25255,67.157524 h 6.07261 v 6.228553 h -6.07261 z m 6.07261,0 h 6.08104 v 6.228553 h -6.08104 z m 6.08104,0 h 6.07261 v 6.228553 h -6.07261 z"
       opacity="0.99"
       fill="#1a1a1a"
       fill-opacity="0.102"
       stroke="#1a1a1a"
       stroke-width="0.072"
       stroke-opacity="0.102"
       id="path1140" /><path
       d="m 147.47881,67.157524 h 6.08104 v 6.228553 h -6.08104 z m -24.30729,6.228553 h 6.08103 v 6.228552 h -6.08103 z"
       opacity="0.99"
       fill="#1a1a1a"
       fill-opacity="0.866"
       stroke="#1a1a1a"
       stroke-width="0.072"
       id="path1142" /><path
       d="m 129.25255,73.386077 h 6.07261 v 6.228552 h -6.07261 z m 6.07261,0 h 6.08104 v 6.228552 h -6.08104 z m 6.08104,0 h 6.07261 v 6.228552 h -6.07261 z"
       opacity="0.99"
       fill="#1a1a1a"
       fill-opacity="0.102"
       stroke="#1a1a1a"
       stroke-width="0.072"
       stroke-opacity="0.102"
       id="path1144" /><path
       d="m 147.47881,73.386077 h 6.08104 v 6.228552 h -6.08104 z m -24.30729,6.228552 h 6.08103 v 6.219925 h -6.08103 z"
       opacity="0.99"
       fill="#1a1a1a"
       fill-opacity="0.866"
       stroke="#1a1a1a"
       stroke-width="0.072"
       id="path1146" /><path
       d="m 129.25255,79.614629 h 6.07261 v 6.219925 h -6.07261 z m 6.07261,0 h 6.08104 v 6.219925 h -6.08104 z m 6.08104,0 h 6.07261 v 6.219925 h -6.07261 z"
       opacity="0.99"
       fill="#1a1a1a"
       fill-opacity="0.102"
       stroke="#1a1a1a"
       stroke-width="0.072"
       stroke-opacity="0.102"
       id="path1148" /><path
       d="m 147.47881,79.614629 h 6.08104 v 6.219925 h -6.08104 z m -24.30729,6.219925 h 6.08103 v 6.228552 h -6.08103 z"
       opacity="0.99"
       fill="#1a1a1a"
       fill-opacity="0.866"
       stroke="#1a1a1a"
       stroke-width="0.072"
       id="path1150" /><path
       d="m 129.25255,85.834554 h 6.07261 v 6.228552 h -6.07261 z m 6.07261,0 h 6.08104 v 6.228552 h -6.08104 z"
       opacity="0.99"
       fill="#1a1a1a"
       fill-opacity="0.102"
       stroke="#1a1a1a"
       stroke-width="0.072"
       stroke-opacity="0.102"
       id="path1152" /><path
       d="m 141.4062,85.834554 h 6.07261 v 6.228552 h -6.07261 z"
       opacity="0.99"
       fill="#1a1a1a"
       fill-opacity="0.866"
       stroke="#1a1a1a"
       stroke-width="0.072"
       id="path1154" /><path
       d="m 147.47881,85.834554 h 6.08104 v 6.228552 h -6.08104 z"
       opacity="0.99"
       fill="#1a1a1a"
       fill-opacity="0.102"
       stroke="#1a1a1a"
       stroke-width="0.072"
       stroke-opacity="0.102"
       id="path1156" /><path
       d="m 123.17152,92.063106 h 6.08103 v 6.219926 h -6.08103 z m 6.08103,0 h 6.07261 v 6.219926 h -6.07261 z m 6.07261,0 h 6.08104 v 6.219926 h -6.08104 z"
       opacity="0.99"
       fill="#1a1a1a"
       fill-opacity="0.866"
       stroke="#1a1a1a"
       stroke-width="0.072"
       id="path1158" /><path
       d="m 141.4062,92.063106 h 6.07261 v 6.219926 h -6.07261 z"
       opacity="0.99"
       fill="#1a1a1a"
       fill-opacity="0.102"
       stroke="#1a1a1a"
       stroke-width="0.072"
       stroke-opacity="0.102"
       id="path1160" /><path
       d="m 147.47881,92.063106 h 6.08104 v 6.219926 h -6.08104 z"
       opacity="0.99"
       fill="#1a1a1a"
       fill-opacity="0.102"
       stroke="#1a1a1a"
       stroke-width="0.072"
       stroke-opacity="0.102"
       id="path1162" /><g
       id="g3012"
       style="stroke-width:1.61902"
       transform="matrix(0.16342148,0,0,0.16342148,63.929585,112.02076)">
</g><g
       id="g3014"
       style="stroke-width:1.61902"
       transform="matrix(0.16342148,0,0,0.16342148,63.929585,112.02076)">
</g><g
       id="g3016"
       style="stroke-width:1.61902"
       transform="matrix(0.16342148,0,0,0.16342148,63.929585,112.02076)">
</g><g
       id="g3018"
       style="stroke-width:1.61902"
       transform="matrix(0.16342148,0,0,0.16342148,63.929585,112.02076)">
</g><g
       id="g3020"
       style="stroke-width:1.61902"
       transform="matrix(0.16342148,0,0,0.16342148,63.929585,112.02076)">
</g><g
       id="g3022"
       style="stroke-width:1.61902"
       transform="matrix(0.16342148,0,0,0.16342148,63.929585,112.02076)">
</g><g
       id="g3024"
       style="stroke-width:1.61902"
       transform="matrix(0.16342148,0,0,0.16342148,63.929585,112.02076)">
</g><g
       id="g3026"
       style="stroke-width:1.61902"
       transform="matrix(0.16342148,0,0,0.16342148,63.929585,112.02076)">
</g><g
       id="g3028"
       style="stroke-width:1.61902"
       transform="matrix(0.16342148,0,0,0.16342148,63.929585,112.02076)">
</g><g
       id="g3030"
       style="stroke-width:1.61902"
       transform="matrix(0.16342148,0,0,0.16342148,63.929585,112.02076)">
</g><g
       id="g3032"
       style="stroke-width:1.61902"
       transform="matrix(0.16342148,0,0,0.16342148,63.929585,112.02076)">
</g><g
       id="g3034"
       style="stroke-width:1.61902"
       transform="matrix(0.16342148,0,0,0.16342148,63.929585,112.02076)">
</g><g
       id="g3036"
       style="stroke-width:1.61902"
       transform="matrix(0.16342148,0,0,0.16342148,63.929585,112.02076)">
</g><g
       id="g3038"
       style="stroke-width:1.61902"
       transform="matrix(0.16342148,0,0,0.16342148,63.929585,112.02076)">
</g><g
       id="g3040"
       style="stroke-width:1.61902"
       transform="matrix(0.16342148,0,0,0.16342148,63.929585,112.02076)">
</g><text
       xml:space="preserve"
       style="font-size:27.5578px;line-height:1.25;font-family:sans-serif;fill:#0000ff;stroke-width:0.688947"
       x="63.059551"
       y="170.9256"
       id="text6647"><tspan
         sodipodi:role="line"
         id="tspan6645"
         style="font-style:normal;font-variant:normal;font-weight:bold;font-stretch:normal;font-family:sans-serif;-inkscape-font-specification:'sans-serif Bold';fill:#0000ff;stroke-width:0.688947"
         x="63.059551"
         y="170.9256">Cycle</tspan></text><path
       style="fill:none;stroke:#008000;stroke-width:3.96875;stroke-linecap:round;stroke-linejoin:miter;stroke-dasharray:none;stroke-opacity:1"
       d="m 47.925016,141.01842 5.47121,-20.41884 h 48.900604 l 5.61751,20.41884 h 55.04232"
       id="path6921"
       sodipodi:nodetypes="ccccc" /></g></svg>
