<?xml version="1.0" encoding="UTF-8" standalone="no"?>
<!-- Created with Inkscape (http://www.inkscape.org/) -->

<svg
   width="115.90764mm"
   height="156.04659mm"
   viewBox="0 0 115.90764 156.04659"
   version="1.1"
   id="svg5"
   xml:space="preserve"
   inkscape:version="1.2 (dc2aeda, 2022-05-15)"
   sodipodi:docname="lcd-config.svg"
   xmlns:inkscape="http://www.inkscape.org/namespaces/inkscape"
   xmlns:sodipodi="http://sodipodi.sourceforge.net/DTD/sodipodi-0.dtd"
   xmlns="http://www.w3.org/2000/svg"
   xmlns:svg="http://www.w3.org/2000/svg"><sodipodi:namedview
     id="namedview7"
     pagecolor="#ffffff"
     bordercolor="#666666"
     borderopacity="1.0"
     inkscape:showpageshadow="2"
     inkscape:pageopacity="0.0"
     inkscape:pagecheckerboard="0"
     inkscape:deskcolor="#d1d1d1"
     inkscape:document-units="mm"
     showgrid="false"
     inkscape:zoom="1.1893044"
     inkscape:cx="343.8985"
     inkscape:cy="321.61657"
     inkscape:window-width="1858"
     inkscape:window-height="1016"
     inkscape:window-x="62"
     inkscape:window-y="27"
     inkscape:window-maximized="1"
     inkscape:current-layer="layer1" /><defs
     id="defs2">
	
	
</defs><g
     inkscape:label="Capa 1"
     inkscape:groupmode="layer"
     id="layer1"
     transform="translate(-47.487017,-39.645815)"
     style="display:inline"><path
       d="m 162.95666,104.08831 c 0,3.01405 -1.95975,2.63472 -3.28208,2.63472 H 50.325425 c -1.32233,0 -2.400409,-1.09426 -2.400409,-4.10831 V 42.692573 c 0,-3.021191 1.078079,-2.571451 2.400409,-2.571451 H 159.67458 c 1.32233,0 3.28208,-0.442597 3.28208,2.571451 z"
       fill="#87ad34"
       stroke="#303030"
       stroke-width="0.875998"
       id="path1050"
       sodipodi:nodetypes="sssssssss" /><path
       d="m 56.313814,48.489121 h 6.081035 v 6.219926 h -6.081035 z"
       opacity="0.99"
       fill="#1a1a1a"
       fill-opacity="0.866"
       stroke="#1a1a1a"
       stroke-width="0.072"
       id="path1052" /><path
       d="m 62.394849,48.489121 h 6.081036 v 6.219926 h -6.081036 z m 6.081036,0 h 6.072613 v 6.219926 h -6.072613 z m 6.081036,0 h 6.06419 v 6.219926 h -6.06419 z m 6.06419,0 h 6.081036 v 6.219926 h -6.072613 z"
       opacity="0.99"
       fill="#1a1a1a"
       fill-opacity="0.102"
       stroke="#1a1a1a"
       stroke-width="0.072"
       stroke-opacity="0.102"
       id="path1054" /><path
       d="m 56.313814,54.717674 h 6.081035 v 6.211298 h -6.081035 z"
       opacity="0.99"
       fill="#1a1a1a"
       fill-opacity="0.866"
       stroke="#1a1a1a"
       stroke-width="0.072"
       id="path1056" /><path
       d="m 62.394849,54.717674 h 6.081036 v 6.211298 h -6.081036 z m 6.081036,0 h 6.072613 v 6.211298 h -6.072613 z m 6.081036,0 h 6.06419 v 6.211298 h -6.06419 z m 6.06419,0 h 6.081036 v 6.211298 h -6.072613 z"
       opacity="0.99"
       fill="#1a1a1a"
       fill-opacity="0.102"
       stroke="#1a1a1a"
       stroke-width="0.072"
       stroke-opacity="0.102"
       id="path1058" /><path
       d="m 56.313814,60.928972 h 6.081035 v 6.228552 h -6.081035 z"
       opacity="0.99"
       fill="#1a1a1a"
       fill-opacity="0.866"
       stroke="#1a1a1a"
       stroke-width="0.072"
       id="path1060" /><path
       d="m 62.394849,60.928972 h 6.081036 v 6.228552 h -6.081036 z m 6.081036,0 h 6.072613 v 6.228552 h -6.072613 z m 6.081036,0 h 6.06419 v 6.228552 h -6.06419 z m 6.06419,0 h 6.081036 v 6.228552 h -6.072613 z"
       opacity="0.99"
       fill="#1a1a1a"
       fill-opacity="0.102"
       stroke="#1a1a1a"
       stroke-width="0.072"
       stroke-opacity="0.102"
       id="path1062" /><path
       d="m 56.313814,67.157524 h 6.081035 v 6.228553 h -6.081035 z"
       opacity="0.99"
       fill="#1a1a1a"
       fill-opacity="0.866"
       stroke="#1a1a1a"
       stroke-width="0.072"
       id="path1064" /><path
       d="m 62.394849,67.157524 h 6.081036 v 6.228553 h -6.081036 z m 6.081036,0 h 6.072613 v 6.228553 h -6.072613 z m 6.081036,0 h 6.06419 v 6.228553 h -6.06419 z m 6.06419,0 h 6.081036 v 6.228553 h -6.072613 z"
       opacity="0.99"
       fill="#1a1a1a"
       fill-opacity="0.102"
       stroke="#1a1a1a"
       stroke-width="0.072"
       stroke-opacity="0.102"
       id="path1066" /><path
       d="m 56.313814,73.386077 h 6.081035 v 6.228552 h -6.081035 z"
       opacity="0.99"
       fill="#1a1a1a"
       fill-opacity="0.866"
       stroke="#1a1a1a"
       stroke-width="0.072"
       id="path1068" /><path
       d="m 62.394849,73.386077 h 6.081036 v 6.228552 h -6.081036 z m 6.081036,0 h 6.072613 v 6.228552 h -6.072613 z m 6.081036,0 h 6.06419 v 6.228552 h -6.06419 z m 6.06419,0 h 6.081036 v 6.228552 h -6.072613 z"
       opacity="0.99"
       fill="#1a1a1a"
       fill-opacity="0.102"
       stroke="#1a1a1a"
       stroke-width="0.072"
       stroke-opacity="0.102"
       id="path1070" /><path
       d="m 56.313814,79.614629 h 6.081035 v 6.219925 h -6.081035 z"
       opacity="0.99"
       fill="#1a1a1a"
       fill-opacity="0.866"
       stroke="#1a1a1a"
       stroke-width="0.072"
       id="path1072" /><path
       d="m 62.394849,79.614629 h 6.081036 v 6.219925 h -6.081036 z m 6.081036,0 h 6.072613 v 6.219925 h -6.072613 z m 6.081036,0 h 6.06419 v 6.219925 h -6.06419 z m 6.06419,0 h 6.081036 v 6.219925 h -6.072613 z"
       opacity="0.99"
       fill="#1a1a1a"
       fill-opacity="0.102"
       stroke="#1a1a1a"
       stroke-width="0.072"
       stroke-opacity="0.102"
       id="path1074" /><path
       d="m 56.313814,85.834554 h 6.081035 v 6.228552 h -6.081035 z"
       opacity="0.99"
       fill="#1a1a1a"
       fill-opacity="0.866"
       stroke="#1a1a1a"
       stroke-width="0.072"
       id="path1076" /><path
       d="m 62.394849,85.834554 h 6.081036 v 6.228552 h -6.081036 z m 6.081036,0 h 6.072613 v 6.228552 h -6.072613 z m 6.081036,0 h 6.06419 v 6.228552 h -6.06419 z m 6.06419,0 h 6.081036 v 6.228552 h -6.072613 z"
       opacity="0.99"
       fill="#1a1a1a"
       fill-opacity="0.102"
       stroke="#1a1a1a"
       stroke-width="0.072"
       stroke-opacity="0.102"
       id="path1078" /><path
       d="m 56.313814,92.063106 h 6.081035 v 6.219926 h -6.081035 z m 6.081035,0 h 6.081036 v 6.219926 h -6.081036 z m 6.081036,0 h 6.072613 v 6.219926 h -6.072613 z m 6.081036,0 h 6.06419 v 6.219926 h -6.06419 z m 6.06419,0 h 6.081036 v 6.219926 h -6.072613 z"
       opacity="0.99"
       fill="#1a1a1a"
       fill-opacity="0.866"
       stroke="#1a1a1a"
       stroke-width="0.072"
       id="path1080" /><path
       d="M 89.742665,48.489121 H 95.8237 v 6.219926 h -6.081035 z"
       opacity="0.99"
       fill="#1a1a1a"
       fill-opacity="0.102"
       stroke="#1a1a1a"
       stroke-width="0.072"
       stroke-opacity="0.102"
       id="path1082" /><path
       d="m 95.8237,48.489121 h 6.07261 v 6.219926 H 95.8237 Z m 6.07261,0 h 6.08104 v 6.219926 h -6.08104 z m 6.08104,0 h 6.08104 v 6.219926 h -6.08104 z"
       opacity="0.99"
       fill="#1a1a1a"
       fill-opacity="0.866"
       stroke="#1a1a1a"
       stroke-width="0.072"
       id="path1084" /><path
       d="m 114.05839,48.489121 h 6.07261 v 6.219926 h -6.07261 z"
       opacity="0.99"
       fill="#1a1a1a"
       fill-opacity="0.102"
       stroke="#1a1a1a"
       stroke-width="0.072"
       stroke-opacity="0.102"
       id="path1086" /><path
       d="M 89.742665,54.717674 H 95.8237 v 6.211298 h -6.081035 z"
       opacity="0.99"
       fill="#1a1a1a"
       fill-opacity="0.866"
       stroke="#1a1a1a"
       stroke-width="0.072"
       id="path1088" /><path
       d="m 95.8237,54.717674 h 6.07261 v 6.211298 H 95.8237 Z m 6.07261,0 h 6.08104 v 6.211298 h -6.08104 z m 6.08104,0 h 6.08104 v 6.211298 h -6.08104 z"
       opacity="0.99"
       fill="#1a1a1a"
       fill-opacity="0.102"
       stroke="#1a1a1a"
       stroke-width="0.072"
       stroke-opacity="0.102"
       id="path1090" /><path
       d="m 114.05839,54.717674 h 6.07261 v 6.211298 h -6.07261 z M 89.742665,60.928972 H 95.8237 v 6.228552 h -6.081035 z"
       opacity="0.99"
       fill="#1a1a1a"
       fill-opacity="0.866"
       stroke="#1a1a1a"
       stroke-width="0.072"
       id="path1092" /><path
       d="m 95.8237,60.928972 h 6.07261 v 6.228552 H 95.8237 Z m 6.07261,0 h 6.08104 v 6.228552 h -6.08104 z m 6.08104,0 h 6.08104 v 6.228552 h -6.08104 z m 6.08104,0 h 6.07261 v 6.228552 h -6.07261 z"
       opacity="0.99"
       fill="#1a1a1a"
       fill-opacity="0.102"
       stroke="#1a1a1a"
       stroke-width="0.072"
       stroke-opacity="0.102"
       id="path1094" /><path
       d="M 89.742665,67.157524 H 95.8237 v 6.228553 h -6.081035 z"
       opacity="0.99"
       fill="#1a1a1a"
       fill-opacity="0.866"
       stroke="#1a1a1a"
       stroke-width="0.072"
       id="path1096" /><path
       d="m 95.8237,67.157524 h 6.07261 v 6.228553 H 95.8237 Z m 6.07261,0 h 6.08104 v 6.228553 h -6.08104 z m 6.08104,0 h 6.08104 v 6.228553 h -6.08104 z m 6.08104,0 h 6.07261 v 6.228553 h -6.07261 z"
       opacity="0.99"
       fill="#1a1a1a"
       fill-opacity="0.102"
       stroke="#1a1a1a"
       stroke-width="0.072"
       stroke-opacity="0.102"
       id="path1098" /><path
       d="M 89.742665,73.386077 H 95.8237 v 6.228552 h -6.081035 z"
       opacity="0.99"
       fill="#1a1a1a"
       fill-opacity="0.866"
       stroke="#1a1a1a"
       stroke-width="0.072"
       id="path1100" /><path
       d="m 95.8237,73.386077 h 6.07261 v 6.228552 H 95.8237 Z m 6.07261,0 h 6.08104 v 6.228552 h -6.08104 z m 6.08104,0 h 6.08104 v 6.228552 h -6.08104 z m 6.08104,0 h 6.07261 v 6.228552 h -6.07261 z"
       opacity="0.99"
       fill="#1a1a1a"
       fill-opacity="0.102"
       stroke="#1a1a1a"
       stroke-width="0.072"
       stroke-opacity="0.102"
       id="path1102" /><path
       d="M 89.742665,79.614629 H 95.8237 v 6.219925 h -6.081035 z"
       opacity="0.99"
       fill="#1a1a1a"
       fill-opacity="0.866"
       stroke="#1a1a1a"
       stroke-width="0.072"
       id="path1104" /><path
       d="m 95.8237,79.614629 h 6.07261 v 6.219925 H 95.8237 Z m 6.07261,0 h 6.08104 v 6.219925 h -6.08104 z m 6.08104,0 h 6.08104 v 6.219925 h -6.08104 z m 6.08104,0 h 6.07261 v 6.219925 h -6.07261 z"
       opacity="0.99"
       fill="#1a1a1a"
       fill-opacity="0.102"
       stroke="#1a1a1a"
       stroke-width="0.072"
       stroke-opacity="0.102"
       id="path1106" /><path
       d="M 89.742665,85.834554 H 95.8237 v 6.228552 h -6.081035 z"
       opacity="0.99"
       fill="#1a1a1a"
       fill-opacity="0.866"
       stroke="#1a1a1a"
       stroke-width="0.072"
       id="path1108" /><path
       d="m 95.8237,85.834554 h 6.07261 v 6.228552 H 95.8237 Z m 6.07261,0 h 6.08104 v 6.228552 h -6.08104 z m 6.08104,0 h 6.08104 v 6.228552 h -6.08104 z"
       opacity="0.99"
       fill="#1a1a1a"
       fill-opacity="0.102"
       stroke="#1a1a1a"
       stroke-width="0.072"
       stroke-opacity="0.102"
       id="path1110" /><path
       d="m 114.05839,85.834554 h 6.07261 v 6.228552 h -6.07261 z"
       opacity="0.99"
       fill="#1a1a1a"
       fill-opacity="0.866"
       stroke="#1a1a1a"
       stroke-width="0.072"
       id="path1112" /><path
       d="M 89.742665,92.063106 H 95.8237 v 6.219926 h -6.081035 z"
       opacity="0.99"
       fill="#1a1a1a"
       fill-opacity="0.102"
       stroke="#1a1a1a"
       stroke-width="0.072"
       stroke-opacity="0.102"
       id="path1114" /><path
       d="m 95.8237,92.063106 h 6.07261 v 6.219926 H 95.8237 Z m 6.07261,0 h 6.08104 v 6.219926 h -6.08104 z m 6.08104,0 h 6.08104 v 6.219926 h -6.08104 z"
       opacity="0.99"
       fill="#1a1a1a"
       fill-opacity="0.866"
       stroke="#1a1a1a"
       stroke-width="0.072"
       id="path1116" /><path
       d="m 114.05839,92.063106 h 6.07261 v 6.219926 h -6.07261 z"
       opacity="0.99"
       fill="#1a1a1a"
       fill-opacity="0.102"
       stroke="#1a1a1a"
       stroke-width="0.072"
       stroke-opacity="0.102"
       id="path1118" /><path
       d="m 123.17152,48.489121 h 6.08103 v 6.219926 h -6.08103 z m 6.08103,0 h 6.07261 v 6.219926 h -6.07261 z m 6.07261,0 h 6.08104 v 6.219926 h -6.08104 z"
       opacity="0.99"
       fill="#1a1a1a"
       fill-opacity="0.866"
       stroke="#1a1a1a"
       stroke-width="0.072"
       id="path1120" /><path
       d="m 141.4062,48.489121 h 6.07261 v 6.219926 h -6.07261 z"
       opacity="0.99"
       fill="#1a1a1a"
       fill-opacity="0.102"
       stroke="#1a1a1a"
       stroke-width="0.072"
       stroke-opacity="0.102"
       id="path1122" /><path
       d="m 147.47881,48.489121 h 6.08104 v 6.219926 h -6.08104 z"
       opacity="0.99"
       fill="#1a1a1a"
       fill-opacity="0.102"
       stroke="#1a1a1a"
       stroke-width="0.072"
       stroke-opacity="0.102"
       id="path1124" /><path
       d="m 123.17152,54.717674 h 6.08103 v 6.211298 h -6.08103 z"
       opacity="0.99"
       fill="#1a1a1a"
       fill-opacity="0.866"
       stroke="#1a1a1a"
       stroke-width="0.072"
       id="path1126" /><path
       d="m 129.25255,54.717674 h 6.07261 v 6.211298 h -6.07261 z m 6.07261,0 h 6.08104 v 6.211298 h -6.08104 z"
       opacity="0.99"
       fill="#1a1a1a"
       fill-opacity="0.102"
       stroke="#1a1a1a"
       stroke-width="0.072"
       stroke-opacity="0.102"
       id="path1128" /><path
       d="m 141.4062,54.717674 h 6.07261 v 6.211298 h -6.07261 z"
       opacity="0.99"
       fill="#1a1a1a"
       fill-opacity="0.866"
       stroke="#1a1a1a"
       stroke-width="0.072"
       id="path1130" /><path
       d="m 147.47881,54.717674 h 6.08104 v 6.211298 h -6.08104 z"
       opacity="0.99"
       fill="#1a1a1a"
       fill-opacity="0.102"
       stroke="#1a1a1a"
       stroke-width="0.072"
       stroke-opacity="0.102"
       id="path1132" /><path
       d="m 123.17152,60.928972 h 6.08103 v 6.228552 h -6.08103 z"
       opacity="0.99"
       fill="#1a1a1a"
       fill-opacity="0.866"
       stroke="#1a1a1a"
       stroke-width="0.072"
       id="path1134" /><path
       d="m 129.25255,60.928972 h 6.07261 v 6.228552 h -6.07261 z m 6.07261,0 h 6.08104 v 6.228552 h -6.08104 z m 6.08104,0 h 6.07261 v 6.228552 h -6.07261 z"
       opacity="0.99"
       fill="#1a1a1a"
       fill-opacity="0.102"
       stroke="#1a1a1a"
       stroke-width="0.072"
       stroke-opacity="0.102"
       id="path1136" /><path
       d="m 147.47881,60.928972 h 6.08104 v 6.228552 h -6.08104 z m -24.30729,6.228552 h 6.08103 v 6.228553 h -6.08103 z"
       opacity="0.99"
       fill="#1a1a1a"
       fill-opacity="0.866"
       stroke="#1a1a1a"
       stroke-width="0.072"
       id="path1138" /><path
       d="m 129.25255,67.157524 h 6.07261 v 6.228553 h -6.07261 z m 6.07261,0 h 6.08104 v 6.228553 h -6.08104 z m 6.08104,0 h 6.07261 v 6.228553 h -6.07261 z"
       opacity="0.99"
       fill="#1a1a1a"
       fill-opacity="0.102"
       stroke="#1a1a1a"
       stroke-width="0.072"
       stroke-opacity="0.102"
       id="path1140" /><path
       d="m 147.47881,67.157524 h 6.08104 v 6.228553 h -6.08104 z m -24.30729,6.228553 h 6.08103 v 6.228552 h -6.08103 z"
       opacity="0.99"
       fill="#1a1a1a"
       fill-opacity="0.866"
       stroke="#1a1a1a"
       stroke-width="0.072"
       id="path1142" /><path
       d="m 129.25255,73.386077 h 6.07261 v 6.228552 h -6.07261 z m 6.07261,0 h 6.08104 v 6.228552 h -6.08104 z m 6.08104,0 h 6.07261 v 6.228552 h -6.07261 z"
       opacity="0.99"
       fill="#1a1a1a"
       fill-opacity="0.102"
       stroke="#1a1a1a"
       stroke-width="0.072"
       stroke-opacity="0.102"
       id="path1144" /><path
       d="m 147.47881,73.386077 h 6.08104 v 6.228552 h -6.08104 z m -24.30729,6.228552 h 6.08103 v 6.219925 h -6.08103 z"
       opacity="0.99"
       fill="#1a1a1a"
       fill-opacity="0.866"
       stroke="#1a1a1a"
       stroke-width="0.072"
       id="path1146" /><path
       d="m 129.25255,79.614629 h 6.07261 v 6.219925 h -6.07261 z m 6.07261,0 h 6.08104 v 6.219925 h -6.08104 z m 6.08104,0 h 6.07261 v 6.219925 h -6.07261 z"
       opacity="0.99"
       fill="#1a1a1a"
       fill-opacity="0.102"
       stroke="#1a1a1a"
       stroke-width="0.072"
       stroke-opacity="0.102"
       id="path1148" /><path
       d="m 147.47881,79.614629 h 6.08104 v 6.219925 h -6.08104 z m -24.30729,6.219925 h 6.08103 v 6.228552 h -6.08103 z"
       opacity="0.99"
       fill="#1a1a1a"
       fill-opacity="0.866"
       stroke="#1a1a1a"
       stroke-width="0.072"
       id="path1150" /><path
       d="m 129.25255,85.834554 h 6.07261 v 6.228552 h -6.07261 z m 6.07261,0 h 6.08104 v 6.228552 h -6.08104 z"
       opacity="0.99"
       fill="#1a1a1a"
       fill-opacity="0.102"
       stroke="#1a1a1a"
       stroke-width="0.072"
       stroke-opacity="0.102"
       id="path1152" /><path
       d="m 141.4062,85.834554 h 6.07261 v 6.228552 h -6.07261 z"
       opacity="0.99"
       fill="#1a1a1a"
       fill-opacity="0.866"
       stroke="#1a1a1a"
       stroke-width="0.072"
       id="path1154" /><path
       d="m 147.47881,85.834554 h 6.08104 v 6.228552 h -6.08104 z"
       opacity="0.99"
       fill="#1a1a1a"
       fill-opacity="0.102"
       stroke="#1a1a1a"
       stroke-width="0.072"
       stroke-opacity="0.102"
       id="path1156" /><path
       d="m 123.17152,92.063106 h 6.08103 v 6.219926 h -6.08103 z m 6.08103,0 h 6.07261 v 6.219926 h -6.07261 z m 6.07261,0 h 6.08104 v 6.219926 h -6.08104 z"
       opacity="0.99"
       fill="#1a1a1a"
       fill-opacity="0.866"
       stroke="#1a1a1a"
       stroke-width="0.072"
       id="path1158" /><path
       d="m 141.4062,92.063106 h 6.07261 v 6.219926 h -6.07261 z"
       opacity="0.99"
       fill="#1a1a1a"
       fill-opacity="0.102"
       stroke="#1a1a1a"
       stroke-width="0.072"
       stroke-opacity="0.102"
       id="path1160" /><path
       d="m 147.47881,92.063106 h 6.08104 v 6.219926 h -6.08104 z"
       opacity="0.99"
       fill="#1a1a1a"
       fill-opacity="0.102"
       stroke="#1a1a1a"
       stroke-width="0.072"
       stroke-opacity="0.102"
       id="path1162" /><path
       style="fill:#0088aa;stroke-width:0.264583"
       d="m 146.49763,186.78151 c 1.35624,1.35624 1.35624,3.55573 0,4.91196 l -2.8066,2.80873 c -1.35623,1.35623 -3.55785,1.35623 -4.91408,0 l -19.82711,-19.82924 7.72068,-7.72068 z"
       id="path3000" /><polygon
       style="fill:#999999;stroke-width:1.61902"
       points="249.486,224.232 288.578,263.324 359.647,334.393 334.923,359.104 263.867,288.048 224.775,248.957 74.837,99.032 74.008,99.861 44.927,97.174 0.53,26.382 26.925,0 97.717,44.397 100.404,73.466 99.562,74.307 "
       id="polygon3008"
       transform="matrix(0.16342148,0,0,0.16342148,63.929585,112.02076)" /><path
       style="fill:#006680;stroke-width:0.264583"
       d="m 128.28464,163.44934 -1.39562,3.72143 -7.72069,7.72068 -3.72159,1.39562 c -0.29792,0.11178 -0.63359,0.0391 -0.85878,-0.18581 l -1.90435,-1.90271 c -0.31721,-0.31688 -0.31737,-0.83084 -4.9e-4,-1.14787 l 4.16103,-4.163 4.0406,-4.03831 4.16104,-4.163 c 0.31687,-0.3172 0.83099,-0.3172 1.14787,-1.6e-4 l 1.90435,1.90435 c 0.22568,0.2247 0.29841,0.5607 0.18663,0.85878 z"
       id="path3010" /><g
       id="g3012"
       style="stroke-width:1.61902"
       transform="matrix(0.16342148,0,0,0.16342148,63.929585,112.02076)">
</g><g
       id="g3014"
       style="stroke-width:1.61902"
       transform="matrix(0.16342148,0,0,0.16342148,63.929585,112.02076)">
</g><g
       id="g3016"
       style="stroke-width:1.61902"
       transform="matrix(0.16342148,0,0,0.16342148,63.929585,112.02076)">
</g><g
       id="g3018"
       style="stroke-width:1.61902"
       transform="matrix(0.16342148,0,0,0.16342148,63.929585,112.02076)">
</g><g
       id="g3020"
       style="stroke-width:1.61902"
       transform="matrix(0.16342148,0,0,0.16342148,63.929585,112.02076)">
</g><g
       id="g3022"
       style="stroke-width:1.61902"
       transform="matrix(0.16342148,0,0,0.16342148,63.929585,112.02076)">
</g><g
       id="g3024"
       style="stroke-width:1.61902"
       transform="matrix(0.16342148,0,0,0.16342148,63.929585,112.02076)">
</g><g
       id="g3026"
       style="stroke-width:1.61902"
       transform="matrix(0.16342148,0,0,0.16342148,63.929585,112.02076)">
</g><g
       id="g3028"
       style="stroke-width:1.61902"
       transform="matrix(0.16342148,0,0,0.16342148,63.929585,112.02076)">
</g><g
       id="g3030"
       style="stroke-width:1.61902"
       transform="matrix(0.16342148,0,0,0.16342148,63.929585,112.02076)">
</g><g
       id="g3032"
       style="stroke-width:1.61902"
       transform="matrix(0.16342148,0,0,0.16342148,63.929585,112.02076)">
</g><g
       id="g3034"
       style="stroke-width:1.61902"
       transform="matrix(0.16342148,0,0,0.16342148,63.929585,112.02076)">
</g><g
       id="g3036"
       style="stroke-width:1.61902"
       transform="matrix(0.16342148,0,0,0.16342148,63.929585,112.02076)">
</g><g
       id="g3038"
       style="stroke-width:1.61902"
       transform="matrix(0.16342148,0,0,0.16342148,63.929585,112.02076)">
</g><g
       id="g3040"
       style="stroke-width:1.61902"
       transform="matrix(0.16342148,0,0,0.16342148,63.929585,112.02076)">
</g><path
       style="fill:#999999;stroke-width:0.264583"
       d="m 139.44959,114.88619 c 4.55162,4.272 4.63905,11.42921 0.25772,15.81054 -1.27551,1.2755 -2.78912,2.17089 -4.39653,2.68861 -2.43956,0.78622 -4.66961,2.11631 -6.48228,3.93127 l -19.70062,19.6985 -6.38847,-6.38848 13.66154,-13.66154 c 3.37221,-3.3722 5.11722,-8.08544 4.58872,-12.82483 -0.38437,-3.4312 0.84521,-7.00866 3.6845,-9.50508 1.58339,-1.3935 3.48578,-2.24966 5.46236,-2.57062 l -2.05306,6.58278 c -0.15068,0.48274 -0.22275,0.97187 -0.22275,1.45249 0,2.07055 1.3345,3.99026 3.41813,4.64117 2.56408,0.79929 5.2942,-0.63114 6.09349,-3.19522 z"
       id="path3002" /><path
       style="fill:#999999;stroke-width:0.264583"
       d="m 110.18128,156.59364 -14.418834,14.41655 c -3.372202,3.37221 -5.119504,8.08544 -4.588712,12.82483 0.382243,3.43332 -0.845215,7.00866 -3.6845,9.50721 -1.585679,1.39121 -3.487905,2.24737 -5.462363,2.56849 l 2.053064,-6.58065 c 0.799294,-2.56621 -0.631134,-5.2942 -3.195217,-6.0935 v -0.002 c -2.566207,-0.7993 -5.294202,0.63113 -6.093497,3.1975 l -2.079211,6.65714 c -4.551615,-4.272 -4.639046,-11.42708 -0.257716,-15.80825 1.277629,-1.27763 2.789115,-2.17318 4.396528,-2.69074 2.441844,-0.78622 4.67173,-2.1163 6.484565,-3.92914 l 20.457753,-20.45575 z"
       id="path3004" /></g></svg>
